<svg xmlns="http://www.w3.org/2000/svg" xmlns:xlink="http://www.w3.org/1999/xlink" x="0" y="0" version="1.1" viewBox="0 0 750 500" xml:space="preserve" style="enable-background:new 0 0 750 500"><style type="text/css">.st0{fill:none;stroke:#e9e9e9;stroke-width:.5;stroke-miterlimit:10}</style><path d="M334.6,445.2L200.4,311c-22.3-22.3-22.3-58.6,0-80.9L334.6,96c22.3-22.3,58.6-22.3,80.9,0l134.2,134.2	c22.3,22.3,22.3,58.6,0,80.9L415.4,445.2C393.1,467.6,356.9,467.6,334.6,445.2z" class="st0"/><path d="M326.3,922.1L62.2,658c-26.9-26.9-26.9-70.5,0-97.4l264.1-264.1c26.9-26.9,70.5-26.9,97.4,0l264.1,264.1	c26.9,26.9,26.9,70.5,0,97.4L423.7,922.1C396.8,949,353.2,949,326.3,922.1z" class="st0"/></svg>