<?xml version="1.0" ?><!DOCTYPE svg  PUBLIC '-//W3C//DTD SVG 1.1 Tiny//EN'  'http://www.w3.org/Graphics/SVG/1.1/DTD/svg11-tiny.dtd'><svg baseProfile="tiny" height="512px" id="Layer_1" version="1.1" viewBox="0 0 512 512" width="512px" xml:space="preserve" xmlns="http://www.w3.org/2000/svg" xmlns:xlink="http://www.w3.org/1999/xlink"><g><path d="M244.977,222.608c-3.111-2.449-6.849-3.674-11.217-3.674H220.65v28.401h13.109c4.368,0,8.106-1.221,11.217-3.676   c3.11-2.445,4.67-5.987,4.67-10.624C249.646,228.537,248.086,225.058,244.977,222.608z"/><path d="M361.063,218.737c-9.93,0-18.569,3.675-25.916,11.022c-7.35,7.346-11.024,16.714-11.024,28.101   c0,11.521,3.675,20.954,11.024,28.302c7.347,7.349,15.986,11.022,25.916,11.022c9.933,0,18.601-3.674,26.021-11.022   c7.412-7.348,11.119-16.781,11.119-28.302c0-11.387-3.707-20.755-11.119-28.101C379.664,222.412,370.996,218.737,361.063,218.737z"/><path d="M452.486,107.223L278.121,6.553c-15.133-8.737-39.896-8.737-55.029,0L48.726,107.223   c-15.132,8.737-27.514,30.183-27.514,47.657v201.339c0,17.475,12.382,38.921,27.514,47.657l174.366,100.67   c15.133,8.737,39.896,8.737,55.029,0l174.365-100.67C467.618,395.14,480,373.693,480,356.219V154.879   C480,137.405,467.618,115.959,452.486,107.223z M165.042,260.939c-7.942,7.085-17.611,10.625-29,10.625h-16.878v49.852H89.569   V194.705h46.474c11.389,0,21.057,3.508,29,10.525c7.943,7.021,11.914,16.287,11.914,27.805S172.985,253.858,165.042,260.939z    M265.732,321.416l-34.16-49.852H220.65v49.852h-29.595V194.705h47.269c11.253,0,20.885,3.508,28.898,10.525   c8.01,7.021,12.016,16.287,12.016,27.805c0,7.149-1.856,13.574-5.561,19.266c-3.71,5.695-8.344,9.864-13.904,12.513l40.319,56.602   H265.732z M409.027,305.926c-13.572,12.31-29.559,18.471-47.964,18.471c-18.271,0-34.193-6.161-47.762-18.471   c-13.577-12.315-20.36-28.336-20.36-48.065c0-19.462,6.783-35.353,20.36-47.666c13.568-12.312,29.49-18.469,47.762-18.469   c11.785,0,22.841,2.647,33.169,7.944c10.327,5.296,18.767,13.076,25.322,23.335c6.555,10.262,9.83,21.882,9.83,34.855   C429.385,277.59,422.598,293.61,409.027,305.926z"/><path d="M142.897,222.608c-3.111-2.449-6.854-3.674-11.223-3.674h-12.51v28.401h12.51c4.369,0,8.112-1.221,11.223-3.676   c3.107-2.445,4.667-5.987,4.667-10.624C147.564,228.537,146.004,225.058,142.897,222.608z"/></g></svg>