<?xml version="1.0" encoding="UTF-8" standalone="no"?>
<!-- Created with Inkscape (http://www.inkscape.org/) -->

<svg
   version="1.1"
   id="svg2"
   width="566.93335"
   height="566.93335"
   viewBox="0 0 566.93335 566.93335"
   sodipodi:docname="support.svg"
   inkscape:version="1.2 (1:1.2.1+202207142221+cd75a1ee6d)"
   xmlns:inkscape="http://www.inkscape.org/namespaces/inkscape"
   xmlns:sodipodi="http://sodipodi.sourceforge.net/DTD/sodipodi-0.dtd"
   xmlns="http://www.w3.org/2000/svg"
   xmlns:svg="http://www.w3.org/2000/svg">
  <defs
     id="defs6">
    <clipPath
       clipPathUnits="userSpaceOnUse"
       id="clipPath56">
      <path
         d="m 2569.04,2213.94 c 0,-16.45 13.34,-29.78 29.81,-29.78 h 13.63 c 16.45,0 29.79,13.33 29.79,29.78 v 189.9 c 0,16.45 -13.34,29.8 -29.79,29.8 h -13.63 c -16.47,0 -29.81,-13.35 -29.81,-29.8 z"
         id="path54" />
    </clipPath>
    <linearGradient
       x1="0"
       y1="0"
       x2="1"
       y2="0"
       gradientUnits="userSpaceOnUse"
       gradientTransform="matrix(1.09e-5,249.482,-249.482,1.09e-5,2605.65,2184.16)"
       spreadMethod="pad"
       id="linearGradient68">
      <stop
         style="stop-opacity:1;stop-color:#393536"
         offset="0"
         id="stop58" />
      <stop
         style="stop-opacity:1;stop-color:#cdcccc"
         offset="0.37515664"
         id="stop60" />
      <stop
         style="stop-opacity:1;stop-color:#cdcccc"
         offset="0.49697"
         id="stop62" />
      <stop
         style="stop-opacity:1;stop-color:#cdcccc"
         offset="0.71859091"
         id="stop64" />
      <stop
         style="stop-opacity:1;stop-color:#393536"
         offset="1"
         id="stop66" />
    </linearGradient>
    <clipPath
       clipPathUnits="userSpaceOnUse"
       id="clipPath88">
      <path
         d="m 1665.63,2213.94 c 0,-16.45 -13.34,-29.78 -29.79,-29.78 h -13.67 c -16.45,0 -29.77,13.33 -29.77,29.78 v 189.9 c 0,16.45 13.32,29.8 29.77,29.8 h 13.67 c 16.45,0 29.79,-13.35 29.79,-29.8 z"
         id="path86" />
    </clipPath>
    <linearGradient
       x1="0"
       y1="0"
       x2="1"
       y2="0"
       gradientUnits="userSpaceOnUse"
       gradientTransform="matrix(-1.09e-5,249.482,249.482,1.09e-5,1629.01,2184.16)"
       spreadMethod="pad"
       id="linearGradient100">
      <stop
         style="stop-opacity:1;stop-color:#393536"
         offset="0"
         id="stop90" />
      <stop
         style="stop-opacity:1;stop-color:#cdcccc"
         offset="0.37515664"
         id="stop92" />
      <stop
         style="stop-opacity:1;stop-color:#cdcccc"
         offset="0.49697"
         id="stop94" />
      <stop
         style="stop-opacity:1;stop-color:#cdcccc"
         offset="0.71859091"
         id="stop96" />
      <stop
         style="stop-opacity:1;stop-color:#393536"
         offset="1"
         id="stop98" />
    </linearGradient>
  </defs>
  <sodipodi:namedview
     id="namedview4"
     pagecolor="#ffffff"
     bordercolor="#666666"
     borderopacity="1.0"
     inkscape:showpageshadow="2"
     inkscape:pageopacity="0.0"
     inkscape:pagecheckerboard="true"
     inkscape:deskcolor="#d1d1d1"
     showgrid="false"
     inkscape:zoom="2.4870135"
     inkscape:cx="128.46733"
     inkscape:cy="242.66052"
     inkscape:window-width="2472"
     inkscape:window-height="1369"
     inkscape:window-x="2008"
     inkscape:window-y="34"
     inkscape:window-maximized="1"
     inkscape:current-layer="g10">
    <inkscape:page
       x="0"
       y="0"
       id="page8"
       width="566.93335"
       height="566.93335" />
  </sodipodi:namedview>
  <g
     id="g10"
     inkscape:groupmode="layer"
     inkscape:label="Page 1"
     transform="matrix(1.3333333,0,0,-1.3333333,0,566.93333)">
    <g
       id="g12"
       transform="scale(0.1)">
      <path
         d="m 2272.85,1630.35 h -294.92 v 374.89 h 294.92 v -374.89"
         style="fill:#f9a672;fill-opacity:1;fill-rule:nonzero;stroke:none"
         id="path16" />
      <path
         d="m 1978.18,1743.46 c 86.8,73.27 147.31,83.8 294.87,83.8 v 187.2 h -294.87 v -271"
         style="fill:#e58148;fill-opacity:1;fill-rule:nonzero;stroke:none"
         id="path18" />
      <path
         d="m 2520.7,2372.51 c -7.09,1.89 -14.74,-0.74 -22.28,-6.76 v 114.42 c 0,201.03 -89.9,357.03 -283.46,357.03 h -194.71 c -193.55,0 -283.47,-156 -283.47,-357.03 v -114.66 c -7.62,6.23 -15.39,8.89 -22.56,7 -20.76,-5.54 -28.34,-47.37 -16.93,-93.37 8.14,-32.76 23.67,-58.66 39.49,-69 0,0 153.32,-359.4 375.9,-359.4 279.49,0 385.74,359.61 385.74,359.61 15.68,10.43 31.11,36.29 39.22,68.79 11.44,46 3.82,87.83 -16.94,93.37"
         style="fill:#f9a672;fill-opacity:1;fill-rule:nonzero;stroke:none"
         id="path20" />
      <path
         d="m 1839.02,2668.73 c 0,0 -14.94,-256.73 -95.15,-320.93 0,0 -69.92,187.98 58.45,383.96 l 36.7,-63.03"
         style="fill:#58180c;fill-opacity:1;fill-rule:nonzero;stroke:none"
         id="path22" />
      <path
         d="m 2396.45,2668.73 c 0,0 14.94,-256.73 95.13,-320.93 0,0 69.92,187.98 -58.42,383.96 l -36.71,-63.03"
         style="fill:#f0421e;fill-opacity:1;fill-rule:nonzero;stroke:none"
         id="path24" />
      <path
         d="m 1788.85,2714.29 c 0,0 95.97,197.93 338.96,179.63 242.95,-18.34 414.87,-200.3 454.42,-14.61 0,0 28.38,-104.03 -23.21,-150.41 0,0 51.59,24.08 100.55,88.51 0,0 24.94,-110.89 -59.3,-152.99 0,0 110,13.78 120.04,117.17 0,0 51.88,-183.36 -132.95,-279.63 -171.52,-89.34 -369.59,-8.59 -476.19,65.32 0,0 52.01,-80.79 122.52,-101.41 0,0 -319.37,-19.8 -444.84,248.42"
         style="fill:#58180c;fill-opacity:1;fill-rule:nonzero;stroke:none"
         id="path26" />
      <path
         d="m 2582.58,1274.79 v 389.47 c 0,44.7 -36.21,80.89 -80.9,80.89 H 1749.3 c -44.65,0 -80.84,-36.19 -80.84,-80.89 v -389.47 h 914.12"
         style="fill:#f9a672;fill-opacity:1;fill-rule:nonzero;stroke:none"
         id="path28" />
      <path
         d="m 2501.68,1744.1 h -178.52 c -0.43,-106.42 -89.33,-195.16 -195.84,-195.16 -106.54,0 -195.43,88.74 -195.82,195.16 h -182.2 c -44.65,0 -80.84,-36.2 -80.84,-80.84 v -389.53 h 914.12 v 389.53 c 0,44.64 -36.21,80.84 -80.9,80.84"
         style="fill:#0b7547;fill-opacity:1;fill-rule:nonzero;stroke:none"
         id="path30" />
      <path
         d="M 1947.23,1744.1 H 1749.3 c -44.65,0 -121.7543,-38.5206 -121.7543,-83.1606 v -389.53 l 319.6843,2.3206 v 470.37"
         style="fill:#343d60;fill-opacity:1;fill-rule:nonzero;stroke:none"
         id="path32"
         sodipodi:nodetypes="cssccc" />
      <path
         d="m 2303.46,1744.1 h 197.93 c 44.68,0 110.701,-42.2198 110.701,-86.8598 v -389.53 l -308.631,6.0198 v 470.37"
         style="fill:#343d60;fill-opacity:1;fill-rule:nonzero;stroke:none"
         id="path34"
         sodipodi:nodetypes="cssccc" />
      <path
         d="m 2152.27,2370.26 c -23.72,8.07 -49.44,8.07 -73.17,0 -2.13,5.1 -4.71,10 -7.77,14.62 -8.48,12.79 -20.31,23.29 -35.37,31.58 h 159.45 c -14.8,-8.24 -26.6,-18.58 -35.08,-31.3 -3.22,-4.64 -5.82,-9.69 -8.06,-14.9 z m 300.74,14.62 c -21.45,32.3 -64.01,50.16 -126.49,53.37 h -0.58 c -6.45,0.28 -13.07,0.49 -19.94,0.49 -6.8,0 -13.3,-0.21 -19.71,-0.49 h -342.03 c -6.45,0.28 -13.05,0.49 -19.94,0.49 -72.74,0 -121.74,-17.95 -145.67,-53.58 -20.76,-30.81 -21.15,-73.06 -1.27,-122.07 34.81,-85.65 67.8,-110.4 146.94,-110.4 78.9,0 110.48,23.68 146.87,110.3 13.24,31.38 17.95,59.96 14.22,84.62 19.32,7.9 41.09,7.96 60.47,0.1 -3.93,-24.61 0.39,-53.24 13.18,-84.62 34.81,-85.65 67.74,-110.4 146.94,-110.4 78.88,0 110.43,23.68 146.87,110.3 20.57,48.87 20.63,91.08 0.14,121.89"
         style="fill:#3c150c;fill-opacity:1;fill-rule:nonzero;stroke:none"
         id="path36" />
      <path
         d="m 2581.17,2417.24 h -37.63 c 0,248.73 -161.22,497.89 -422.84,497.89 -255.49,0 -422.83,-249.16 -422.83,-497.89 h -37.64 c 0,270.87 160.61,538.04 460.47,538.04 313.66,0 460.47,-267.17 460.47,-538.04"
         style="fill:#ef2e32;fill-opacity:1;fill-rule:nonzero;stroke:none"
         id="path38" />
      <path
         d="m 1679.94,2449.88 c 8.87,0.22 17.42,-1.2 25.37,-4.02 3.03,42.58 14.69,131.18 34.77,169 10.7,20.47 8.9,47.36 -7.58,61.91 -16.39,14.55 -45.25,6.13 -59.75,-21.28 -30.05,-56.69 -45.48,-167.1 -45.58,-231.21 13.14,15.27 31.83,25.06 52.77,25.6"
         style="fill:#292627;fill-opacity:1;fill-rule:nonzero;stroke:none"
         id="path40" />
      <path
         d="m 2550.1,2449.88 c -8.89,0.22 -17.42,-1.2 -25.37,-4.02 -3.01,42.58 -14.69,131.18 -34.77,169 -10.68,20.47 -8.91,47.36 7.58,61.91 16.37,14.55 45.25,6.13 59.75,-21.28 30.05,-56.69 45.48,-167.1 45.58,-231.21 -13.14,15.27 -31.83,25.06 -52.77,25.6"
         style="fill:#292627;fill-opacity:1;fill-rule:nonzero;stroke:none"
         id="path42" />
      <path
         d="m 2285.18,2870.91 c -3.77,-6.59 -12.17,-8.47 -18.99,-4.84 -59.2,31.73 -231.8,31.73 -290.98,0 -6.79,-3.63 -15.19,-1.75 -18.98,4.84 -9.65,17.36 -19.3,34.71 -28.94,52.05 -3.77,6.59 0.8,16.84 10.52,22.04 82.7,44.34 283.09,44.34 365.78,0 9.73,-5.2 14.3,-15.45 10.55,-22.04 -9.65,-17.34 -19.3,-34.69 -28.96,-52.05"
         style="fill:#d3d2d2;fill-opacity:1;fill-rule:nonzero;stroke:none"
         id="path44" />
      <path
         d="m 2626.13,2406.3 c 31.29,-2.11 56.27,-44.92 56.27,-97.41 0,-52.49 -24.98,-95.28 -56.27,-97.4 v 194.81"
         style="fill:#373334;fill-opacity:1;fill-rule:nonzero;stroke:none"
         id="path46" />
      <path
         d="m 2656.76,2389.89 v -162.01 c -8.71,-9.69 -19.06,-15.63 -30.22,-16.39 v 194.81 c 11.16,-0.77 21.51,-6.72 30.22,-16.41"
         style="fill:#d3d2d2;fill-opacity:1;fill-rule:nonzero;stroke:none"
         id="path48" />
      <g
         id="g50">
        <g
           id="g52"
           clip-path="url(#clipPath56)">
          <path
             d="m 2569.04,2213.94 c 0,-16.45 13.34,-29.78 29.81,-29.78 h 13.63 c 16.45,0 29.79,13.33 29.79,29.78 v 189.9 c 0,16.45 -13.34,29.8 -29.79,29.8 h -13.63 c -16.47,0 -29.81,-13.35 -29.81,-29.8 v -189.9"
             style="fill:url(#linearGradient68);fill-opacity:1;fill-rule:nonzero;stroke:none"
             id="path70" />
        </g>
      </g>
      <path
         d="m 2575.23,2213.94 c 0,-16.45 13.34,-29.78 29.79,-29.78 h 13.65 c 16.47,0 29.79,13.33 29.79,29.78 v 189.9 c 0,16.45 -13.32,29.8 -29.79,29.8 h -13.65 c -16.45,0 -29.79,-13.35 -29.79,-29.8 v -189.9"
         style="fill:#373334;fill-opacity:1;fill-rule:nonzero;stroke:none"
         id="path72" />
      <path
         d="m 2598.61,2433.64 h 13.66 c 3.26,0 6.36,-0.56 9.31,-1.52 v -241.01 c 0,-1.89 -0.12,-3.74 -0.29,-5.57 -2.85,-0.89 -5.88,-1.38 -9.02,-1.38 h -13.66 c -16.44,0 -29.78,13.33 -29.78,29.78 v 189.9 c 0,16.45 13.34,29.8 29.78,29.8"
         style="fill:#292627;fill-opacity:1;fill-rule:nonzero;stroke:none"
         id="path74" />
      <path
         d="m 2495.92,2207.37 c 0,-32.73 26.54,-59.28 59.29,-59.28 32.74,0 59.3,26.55 59.3,59.28 v 203.01 c 0,32.76 -26.56,59.3 -59.3,59.3 -32.75,0 -59.29,-26.54 -59.29,-59.3 v -203.01"
         style="fill:#ef2e32;fill-opacity:1;fill-rule:nonzero;stroke:none"
         id="path76" />
      <path
         d="m 1608.54,2406.3 c -31.31,-2.11 -56.27,-44.92 -56.27,-97.41 0,-52.49 24.96,-95.28 56.27,-97.4 v 194.81"
         style="fill:#373334;fill-opacity:1;fill-rule:nonzero;stroke:none"
         id="path78" />
      <path
         d="m 1577.91,2389.89 v -162.01 c 8.69,-9.69 19.06,-15.63 30.2,-16.39 v 194.81 c -11.14,-0.77 -21.51,-6.72 -30.2,-16.41"
         style="fill:#d3d2d2;fill-opacity:1;fill-rule:nonzero;stroke:none"
         id="path80" />
      <g
         id="g82">
        <g
           id="g84"
           clip-path="url(#clipPath88)">
          <path
             d="m 1665.63,2213.94 c 0,-16.45 -13.34,-29.78 -29.79,-29.78 h -13.67 c -16.45,0 -29.77,13.33 -29.77,29.78 v 189.9 c 0,16.45 13.32,29.8 29.77,29.8 h 13.67 c 16.45,0 29.79,-13.35 29.79,-29.8 v -189.9"
             style="fill:url(#linearGradient100);fill-opacity:1;fill-rule:nonzero;stroke:none"
             id="path102" />
        </g>
      </g>
      <path
         d="m 1659.41,2213.94 c 0,-16.45 -13.32,-29.78 -29.78,-29.78 h -13.65 c -16.45,0 -29.79,13.33 -29.79,29.78 v 189.9 c 0,16.45 13.34,29.8 29.79,29.8 h 13.65 c 16.46,0 29.78,-13.35 29.78,-29.8 v -189.9"
         style="fill:#373334;fill-opacity:1;fill-rule:nonzero;stroke:none"
         id="path104" />
      <path
         d="m 1636.04,2433.64 h -13.66 c -3.26,0 -6.36,-0.56 -9.29,-1.52 v -241.01 c 0,-1.89 0.11,-3.74 0.29,-5.57 2.85,-0.89 5.88,-1.38 9,-1.38 h 13.66 c 16.44,0 29.8,13.33 29.8,29.78 v 189.9 c 0,16.45 -13.36,29.8 -29.8,29.8"
         style="fill:#292627;fill-opacity:1;fill-rule:nonzero;stroke:none"
         id="path106" />
      <path
         d="m 1738.73,2207.37 c 0,-32.73 -26.54,-59.28 -59.3,-59.28 -32.73,0 -59.27,26.55 -59.27,59.28 v 203.01 c 0,32.76 26.54,59.3 59.27,59.3 32.76,0 59.3,-26.54 59.3,-59.3 v -203.01"
         style="fill:#ef2e32;fill-opacity:1;fill-rule:nonzero;stroke:none"
         id="path108" />
      <path
         d="m 2068.54,2036.94 c 0,-15.3 -12.41,-33.98 -27.7,-33.98 h -75.72 c -46.39,0 -27.68,14.85 -27.68,29.25 v 18.09 c 0,3.48 -20.39,30.39 27.68,30.39 h 75.72 c 15.29,0 27.7,-20.38 27.7,-35.67 v -8.08"
         style="fill:#292627;fill-opacity:1;fill-rule:nonzero;stroke:none"
         id="path110" />
      <path
         d="m 1920.08,2029.94 c -106.84,0 -278.54,27.42 -331.84,81.59 -63.85,64.82 -63.34,143.68 -63.28,146.99 0,25.43 6.31,44.49 18.77,56.44 13.03,12.52 27.66,12.32 29.28,12.25 l -0.74,-18.42 0.37,9.22 -0.24,-9.24 c -0.35,0.04 -8.71,0.02 -16.17,-7.42 -8.4,-8.29 -12.81,-23.14 -12.81,-42.96 -0.02,-0.87 -0.26,-74.95 58.22,-134.15 49.69,-50.34 216.91,-75.86 318.44,-75.86 v -18.44"
         style="fill:#373334;fill-opacity:1;fill-rule:nonzero;stroke:none"
         id="path112" />
      <path
         d="m 1938.03,2024.7 c 0.1,-3.63 -2.78,-6.64 -6.41,-6.72 l -36.52,4.83 c -3.64,-0.09 -6.66,2.79 -6.74,6.43 l -0.43,18.2 c -0.1,3.63 2.77,6.66 6.43,6.75 l 36.25,6.56 c 3.63,0.08 6.66,-2.79 6.73,-6.44 l 0.69,-29.61"
         style="fill:#292627;fill-opacity:1;fill-rule:nonzero;stroke:none"
         id="path114" />
      <path
         d="m 1937.64,2054.31 c -0.1,3.65 -3.11,6.52 -6.74,6.44 l -3.89,-0.7 c 2.13,-1.05 3.63,-3.19 3.69,-5.74 l 0.71,-29.61 c 0.07,-2.72 -1.53,-5.08 -3.87,-6.16 l 4.37,-0.56 c 3.64,0.08 6.51,3.09 6.41,6.72 l -0.68,29.61"
         style="fill:#d3d2d2;fill-opacity:1;fill-rule:nonzero;stroke:none"
         id="path116" />
      <path
         d="m 3603.86,1983.29 c -1.43,-16.58 -3.14,-33.09 -5.11,-49.51 -0.66,-5.48 3.25,-10.46 8.73,-11.12 5.48,-0.66 10.46,3.25 11.12,8.73 2.01,16.65 3.73,33.38 5.18,50.18 0.48,5.5 -3.6,10.35 -9.1,10.82 -5.5,0.48 -10.34,-3.6 -10.82,-9.1 z M 3587.13,1855 c -2.86,-16.38 -6,-32.68 -9.4,-48.88 -1.14,-5.4 2.32,-10.7 7.73,-11.84 5.4,-1.13 10.7,2.33 11.84,7.73 3.45,16.42 6.63,32.94 9.54,49.54 0.95,5.44 -2.69,10.63 -8.13,11.58 -5.44,0.95 -10.62,-2.69 -11.57,-8.13 z m -27.87,-126.33 c -4.29,-16.07 -8.84,-32.03 -13.65,-47.87 -1.61,-5.28 1.37,-10.87 6.65,-12.47 5.28,-1.61 10.87,1.38 12.48,6.66 4.88,16.06 9.49,32.23 13.84,48.51 1.42,5.34 -1.74,10.82 -7.08,12.24 -5.33,1.43 -10.81,-1.74 -12.23,-7.07 z m -38.91,-123.58 c -5.7,-15.66 -11.66,-31.2 -17.87,-46.6 -2.06,-5.13 0.42,-10.96 5.54,-13.02 5.12,-2.06 10.95,0.42 13.02,5.54 6.28,15.62 12.32,31.37 18.1,47.24 1.89,5.19 -0.79,10.93 -5.98,12.82 -5.19,1.89 -10.92,-0.79 -12.81,-5.98 z m -49.67,-119.76 c -7.05,-15.08 -14.34,-30.02 -21.87,-44.82 -2.51,-4.93 -0.55,-10.95 4.37,-13.45 4.92,-2.51 10.94,-0.55 13.45,4.37 7.64,15 15.03,30.15 22.17,45.43 2.33,5.01 0.17,10.96 -4.83,13.3 -5,2.33 -10.95,0.17 -13.29,-4.83 z m -59.95,-114.88 c -8.33,-14.39 -16.9,-28.63 -25.69,-42.72 -2.93,-4.68 -1.5,-10.85 3.18,-13.77 4.69,-2.93 10.85,-1.51 13.78,3.18 8.91,14.27 17.59,28.7 26.04,43.29 2.77,4.78 1.13,10.9 -3.64,13.66 -4.78,2.77 -10.9,1.14 -13.66,-3.64 z m -69.72,-109.16 c -9.55,-13.6 -19.31,-27.03 -29.3,-40.29 -3.33,-4.41 -2.44,-10.68 1.97,-14 4.41,-3.33 10.68,-2.44 14.01,1.97 10.12,13.44 20.02,27.05 29.69,40.83 3.17,4.52 2.08,10.76 -2.44,13.93 -4.52,3.18 -10.76,2.08 -13.92,-2.44 z m -78.92,-102.63 c -10.68,-12.71 -21.57,-25.24 -32.67,-37.58 -3.7,-4.11 -3.36,-10.43 0.75,-14.12 4.1,-3.7 10.43,-3.36 14.12,0.75 11.25,12.5 22.29,25.2 33.11,38.08 3.55,4.23 3.01,10.54 -1.22,14.09 -4.23,3.55 -10.54,3.01 -14.09,-1.22 z m -87.49,-95.37 c -11.73,-11.73 -23.66,-23.26 -35.79,-34.59 -4.03,-3.77 -4.24,-10.1 -0.48,-14.14 3.78,-4.03 10.11,-4.24 14.15,-0.47 12.28,11.48 24.37,23.17 36.26,35.05 3.91,3.91 3.91,10.24 0,14.15 -3.91,3.9 -10.23,3.91 -14.14,0 z m -95.38,-87.392 c -12.7,-10.66 -25.57,-21.109 -38.63,-31.347 -4.35,-3.41 -5.11,-9.692 -1.7,-14.039 3.41,-4.352 9.69,-5.114 14.04,-1.703 13.23,10.382 26.28,20.972 39.15,31.769 4.23,3.551 4.78,9.863 1.23,14.09 -3.55,4.23 -9.86,4.781 -14.09,1.23 z m -102.55,-78.769 c -13.56,-9.508 -27.29,-18.801 -41.18,-27.859 -4.63,-3.012 -5.93,-9.211 -2.91,-13.84 3.02,-4.621 9.21,-5.918 13.84,-2.91 14.08,9.191 27.99,18.601 41.73,28.242 4.53,3.168 5.62,9.398 2.45,13.929 -3.17,4.52 -9.41,5.61 -13.93,2.438 z m -108.95,-69.527 c -14.32,-8.282 -28.79,-16.332 -43.41,-24.153 -4.87,-2.597 -6.71,-8.66 -4.11,-13.527 2.6,-4.871 8.66,-6.711 13.54,-4.113 14.81,7.929 29.48,16.089 44,24.48 4.78,2.77 6.41,8.879 3.65,13.66 -2.77,4.781 -8.88,6.422 -13.66,3.653 z m -114.51,-59.731 c -14.97,-6.992 -30.08,-13.75 -45.32,-20.25 -5.08,-2.172 -7.44,-8.051 -5.27,-13.133 2.17,-5.07 8.04,-7.437 13.12,-5.269 15.45,6.601 30.76,13.441 45.93,20.531 5,2.34 7.17,8.289 4.83,13.289 -2.34,5.012 -8.29,7.172 -13.29,4.832 z m -119.22,-49.473 c -15.56,-5.668 -31.24,-11.089 -47.04,-16.25 -5.26,-1.707 -8.12,-7.359 -6.4,-12.609 1.71,-5.25 7.36,-8.109 12.61,-6.398 16.01,5.23 31.91,10.718 47.68,16.468 5.19,1.891 7.87,7.629 5.98,12.821 -1.89,5.191 -7.64,7.859 -12.82,5.968 z m -123.37,-38.91 c -16,-4.277 -32.09,-8.297 -48.3,-12.058 -5.38,-1.239 -8.73,-6.621 -7.49,-12 1.25,-5.379 6.63,-8.731 12.01,-7.481 16.42,3.801 32.74,7.879 48.95,12.223 5.33,1.43 8.5,6.906 7.07,12.25 -1.43,5.328 -6.92,8.496 -12.25,7.066 z M 2384.3,651.551 c -16.3,-2.86 -32.69,-5.461 -49.16,-7.781 -5.47,-0.77 -9.28,-5.829 -8.51,-11.301 0.77,-5.469 5.83,-9.278 11.3,-8.508 16.7,2.359 33.31,4.988 49.82,7.891 5.44,0.957 9.08,6.136 8.12,11.578 -0.95,5.441 -6.13,9.078 -11.57,8.121 z m -128.28,-16.789 c -16.47,-1.434 -33.03,-2.594 -49.66,-3.481 -5.52,-0.301 -9.74,-5.011 -9.45,-10.519 0.3,-5.524 5.01,-9.75 10.53,-9.453 16.84,0.902 33.61,2.082 50.31,3.531 5.5,0.48 9.57,5.32 9.1,10.828 -0.48,5.504 -5.34,9.57 -10.83,9.094 z m -129.28,-5.621 h -0.79 c -16.39,0 -32.72,0.257 -48.99,0.789 -5.52,0.179 -10.14,-4.149 -10.31,-9.668 -0.19,-5.524 4.15,-10.141 9.67,-10.321 16.48,-0.531 33.02,-0.8 49.64,-0.8 h 0.78 c 5.53,0 10,4.48 10,10 0,5.519 -4.47,10 -10,10 z m -129.27,5.48 c -16.59,1.43 -33.09,3.117 -49.52,5.09 -5.48,0.648 -10.46,-3.262 -11.11,-8.75 -0.66,-5.481 3.25,-10.461 8.74,-11.109 16.65,-1.993 33.37,-3.711 50.18,-5.153 5.5,-0.469 10.34,3.602 10.82,9.11 0.47,5.5 -3.61,10.339 -9.11,10.812 z m -128.3,16.66 c -16.39,2.86 -32.69,5.989 -48.88,9.379 -5.41,1.141 -10.71,-2.332 -11.84,-7.73 -1.14,-5.41 2.33,-10.711 7.74,-11.84 16.42,-3.442 32.93,-6.61 49.54,-9.512 5.44,-0.949 10.62,2.692 11.57,8.133 0.95,5.437 -2.69,10.617 -8.13,11.57 z m -126.35,27.809 c -16.07,4.281 -32.02,8.828 -47.87,13.629 -5.29,1.601 -10.87,-1.379 -12.47,-6.668 -1.61,-5.281 1.38,-10.871 6.67,-12.473 16.06,-4.867 32.23,-9.469 48.52,-13.816 5.33,-1.422 10.81,1.75 12.23,7.09 1.43,5.328 -1.75,10.808 -7.08,12.238 z m -123.6,38.851 c -15.66,5.688 -31.2,11.637 -46.61,17.84 -5.13,2.059 -10.95,-0.422 -13.01,-5.543 -2.06,-5.129 0.42,-10.949 5.55,-13.008 15.62,-6.289 31.37,-12.32 47.24,-18.089 5.19,-1.879 10.93,0.789 12.82,5.98 1.88,5.188 -0.79,10.93 -5.98,12.82 z m -119.78,49.598 c -15.09,7.039 -30.04,14.332 -44.84,21.859 -4.93,2.5 -10.95,0.543 -13.45,-4.39 -2.5,-4.918 -0.54,-10.938 4.39,-13.438 15,-7.629 30.15,-15.011 45.44,-22.152 5,-2.328 10.95,-0.168 13.29,4.832 2.34,5.012 0.17,10.961 -4.83,13.289 z m -114.91,59.891 c -14.4,8.332 -28.65,16.89 -42.73,25.679 -4.69,2.922 -10.86,1.493 -13.78,-3.187 -2.93,-4.692 -1.5,-10.863 3.19,-13.781 14.28,-8.911 28.71,-17.582 43.31,-26.02 4.78,-2.769 10.89,-1.133 13.66,3.649 2.76,4.781 1.13,10.898 -3.65,13.66 z m -109.2,69.672 c -13.6,9.539 -27.04,19.296 -40.31,29.277 -4.41,3.32 -10.68,2.43 -14,-1.981 -3.32,-4.418 -2.43,-10.679 1.98,-14 13.45,-10.117 27.06,-20.007 40.85,-29.679 4.52,-3.168 10.76,-2.071 13.93,2.449 3.17,4.523 2.08,10.762 -2.44,13.934 z m -102.67,78.859 c -12.72,10.68 -25.25,21.57 -37.6,32.659 -4.11,3.69 -10.44,3.35 -14.12,-0.76 -3.69,-4.11 -3.35,-10.43 0.76,-14.122 12.51,-11.238 25.21,-22.269 38.09,-33.09 4.23,-3.546 10.54,-3.007 14.09,1.223 3.55,4.231 3,10.539 -1.22,14.09 z m -95.42,87.439 c -11.73,11.73 -23.27,23.66 -34.61,35.77 -3.77,4.03 -10.1,4.24 -14.13,0.47 -4.04,-3.77 -4.24,-10.1 -0.47,-14.13 11.49,-12.28 23.18,-24.37 35.08,-36.25 3.9,-3.9 10.23,-3.9 14.13,0.01 3.9,3.9 3.9,10.23 0,14.13 z m -87.443,95.34 c -10.664,12.69 -21.121,25.56 -31.363,38.61 -3.414,4.35 -9.7,5.1 -14.043,1.69 -4.348,-3.41 -5.106,-9.69 -1.692,-14.04 10.383,-13.22 20.977,-26.27 31.789,-39.13 3.547,-4.23 9.86,-4.77 14.086,-1.22 4.231,3.55 4.778,9.86 1.227,14.09 z m -78.82,102.51 c -9.516,13.55 -18.813,27.28 -27.879,41.16 -3.024,4.62 -9.219,5.92 -13.84,2.9 -4.625,-3.02 -5.922,-9.21 -2.903,-13.84 9.188,-14.07 18.606,-27.98 28.254,-41.71 3.168,-4.52 9.411,-5.61 13.926,-2.44 4.524,3.17 5.61,9.41 2.442,13.93 z m -69.586,108.91 c -8.289,14.31 -16.352,28.78 -24.172,43.4 -2.61,4.87 -8.672,6.7 -13.543,4.1 -4.867,-2.61 -6.703,-8.67 -4.098,-13.54 7.934,-14.81 16.102,-29.48 24.508,-43.99 2.766,-4.78 8.883,-6.41 13.664,-3.64 4.777,2.77 6.406,8.89 3.641,13.67 z m -59.793,114.48 c -7.008,14.97 -13.766,30.07 -20.282,45.31 -2.171,5.08 -8.05,7.43 -13.125,5.26 -5.078,-2.17 -7.433,-8.04 -5.261,-13.12 6.601,-15.44 13.453,-30.75 20.55,-45.92 2.34,-5.01 8.293,-7.16 13.293,-4.82 5.004,2.34 7.165,8.29 4.825,13.29 z m -49.532,119.19 c -5.679,15.56 -11.109,31.24 -16.281,47.04 -1.719,5.25 -7.367,8.11 -12.609,6.39 -5.25,-1.72 -8.113,-7.36 -6.395,-12.61 5.239,-16.01 10.739,-31.91 16.496,-47.68 1.891,-5.19 7.629,-7.86 12.821,-5.96 5.187,1.89 7.855,7.63 5.968,12.82 z m -38.984,123.36 c -4.289,15.99 -8.316,32.09 -12.082,48.28 -1.254,5.38 -6.625,8.73 -12.008,7.48 -5.379,-1.25 -8.726,-6.62 -7.472,-12 3.812,-16.42 7.898,-32.74 12.246,-48.94 1.429,-5.34 6.914,-8.5 12.246,-7.07 5.336,1.43 8.5,6.91 7.07,12.25 z m -28.004,126.3 c -2.871,16.3 -5.473,32.68 -7.808,49.16 -0.778,5.46 -5.832,9.27 -11.301,8.49 -5.465,-0.77 -9.27,-5.83 -8.492,-11.3 2.359,-16.69 5,-33.3 7.906,-49.82 0.957,-5.44 6.14,-9.07 11.582,-8.11 5.437,0.96 9.07,6.14 8.113,11.58 z m -16.855,128.27 c -1.442,16.47 -2.61,33.03 -3.504,49.65 -0.301,5.52 -5.012,9.75 -10.531,9.45 -5.512,-0.3 -9.739,-5.01 -9.442,-10.52 0.906,-16.85 2.094,-33.63 3.555,-50.32 0.476,-5.5 5.328,-9.57 10.832,-9.09 5.496,0.48 9.566,5.33 9.09,10.83 z m -5.684,129.28 -0.004,1.52 c 0,16.14 0.258,32.23 0.77,48.25 0.175,5.52 -4.16,10.14 -9.676,10.32 -5.524,0.17 -10.137,-4.16 -10.313,-9.68 -0.519,-16.23 -0.781,-32.53 -0.777,-48.89 v -1.54 c 0.004,-5.52 4.481,-10 10.012,-9.99 5.519,0 9.992,4.49 9.988,10.01 z m 5.422,129.27 c 1.414,16.58 3.102,33.09 5.059,49.52 0.648,5.48 -3.27,10.45 -8.747,11.11 -5.484,0.65 -10.46,-3.27 -11.109,-8.75 -1.988,-16.64 -3.695,-33.37 -5.133,-50.18 -0.472,-5.51 3.61,-10.35 9.114,-10.82 5.507,-0.47 10.343,3.61 10.82,9.12 z m 16.59,128.31 c 2.851,16.39 5.976,32.68 9.359,48.88 1.129,5.41 -2.34,10.71 -7.75,11.84 -5.402,1.13 -10.699,-2.34 -11.828,-7.75 -3.43,-16.42 -6.594,-32.93 -9.484,-49.55 -0.946,-5.44 2.695,-10.62 8.136,-11.56 5.446,-0.95 10.625,2.69 11.571,8.14 z m 27.746,126.36 c 4.273,16.07 8.812,32.03 13.609,47.88 1.598,5.29 -1.39,10.87 -6.676,12.47 -5.289,1.6 -10.875,-1.39 -12.472,-6.68 -4.86,-16.06 -9.457,-32.24 -13.789,-48.53 -1.422,-5.33 1.754,-10.81 7.09,-12.23 5.336,-1.42 10.816,1.75 12.238,7.09 z m 38.789,123.62 c 5.684,15.66 11.625,31.21 17.816,46.62 2.055,5.13 -0.429,10.95 -5.55,13.01 -5.125,2.06 -10.95,-0.43 -13.004,-5.55 -6.282,-15.63 -12.301,-31.38 -18.063,-47.26 -1.887,-5.19 0.797,-10.93 5.985,-12.81 5.191,-1.89 10.929,0.8 12.816,5.99 z m 49.543,119.81 c 7.031,15.09 14.309,30.04 21.828,44.85 2.5,4.92 0.531,10.94 -4.391,13.44 -4.925,2.5 -10.941,0.54 -13.441,-4.39 -7.621,-15.01 -14.996,-30.16 -22.125,-45.45 -2.332,-5.01 -0.164,-10.96 4.84,-13.29 5.008,-2.34 10.961,-0.17 13.297,4.84 z m 59.832,114.94 c 8.312,14.4 16.867,28.65 25.648,42.74 2.918,4.69 1.489,10.86 -3.199,13.78 -4.687,2.92 -10.855,1.49 -13.773,-3.2 -8.903,-14.28 -17.571,-28.72 -25.996,-43.32 -2.766,-4.78 -1.129,-10.89 3.652,-13.65 4.777,-2.77 10.898,-1.13 13.66,3.65 z m 69.605,109.23 c 9.536,13.61 19.289,27.05 29.258,40.33 3.317,4.41 2.43,10.68 -1.984,14 -4.414,3.31 -10.684,2.43 -14,-1.99 -10.11,-13.45 -19.996,-27.07 -29.652,-40.87 -3.168,-4.52 -2.079,-10.75 2.449,-13.92 4.523,-3.17 10.758,-2.07 13.926,2.45 z m 78.817,102.72 c 10.668,12.72 21.547,25.26 32.627,37.61 3.69,4.11 3.35,10.43 -0.76,14.12 -4.11,3.69 -10.43,3.35 -14.12,-0.76 -11.235,-12.52 -22.259,-25.23 -33.071,-38.12 -3.547,-4.23 -2.996,-10.54 1.23,-14.09 4.234,-3.55 10.543,-2.99 14.094,1.24 z m 87.387,95.46 c 11.73,11.74 23.64,23.28 35.75,34.63 4.03,3.77 4.23,10.1 0.46,14.13 -3.77,4.03 -10.1,4.24 -14.13,0.46 -12.27,-11.49 -24.35,-23.19 -36.23,-35.09 -3.91,-3.91 -3.9,-10.24 0,-14.14 3.92,-3.9 10.24,-3.9 14.15,0.01 z m 95.29,87.49 c 12.69,10.68 25.55,21.14 38.6,31.39 4.34,3.41 5.09,9.7 1.68,14.04 -3.41,4.35 -9.7,5.1 -14.04,1.68 -13.22,-10.38 -26.26,-20.98 -39.11,-31.8 -4.23,-3.56 -4.77,-9.87 -1.22,-14.09 3.56,-4.23 9.87,-4.77 14.1,-1.22 z m 102.47,78.88 c 13.55,9.52 27.27,18.82 41.15,27.9 4.62,3.02 5.92,9.22 2.9,13.84 -3.03,4.62 -9.23,5.92 -13.85,2.9 -14.06,-9.2 -27.97,-18.63 -41.7,-28.28 -4.52,-3.17 -5.61,-9.41 -2.43,-13.93 3.17,-4.52 9.41,-5.61 13.93,-2.43 z m 108.88,69.64 c 14.31,8.3 28.77,16.37 43.38,24.2 4.87,2.61 6.7,8.67 4.09,13.54 -2.61,4.87 -8.68,6.7 -13.54,4.09 -14.8,-7.94 -29.46,-16.12 -43.97,-24.53 -4.78,-2.77 -6.41,-8.89 -3.63,-13.67 2.77,-4.78 8.89,-6.4 13.67,-3.63 z m 114.45,59.86 c 14.96,7.01 30.06,13.78 45.3,20.3 5.07,2.17 7.42,8.05 5.25,13.13 -2.17,5.07 -8.05,7.43 -13.12,5.25 -15.44,-6.61 -30.75,-13.47 -45.92,-20.57 -5,-2.35 -7.16,-8.3 -4.81,-13.3 2.34,-5 8.29,-7.15 13.3,-4.81 z m 119.16,49.59 c 15.56,5.69 31.23,11.12 47.03,16.3 5.24,1.72 8.11,7.37 6.39,12.62 -1.73,5.25 -7.38,8.11 -12.62,6.39 -16.01,-5.25 -31.9,-10.76 -47.67,-16.53 -5.19,-1.89 -7.85,-7.63 -5.96,-12.82 1.9,-5.19 7.64,-7.86 12.83,-5.96 z m 123.34,39.05 c 15.99,4.3 32.08,8.34 48.28,12.11 5.38,1.25 8.72,6.63 7.47,12.01 -1.26,5.38 -6.64,8.72 -12.01,7.47 -16.41,-3.83 -32.73,-7.92 -48.93,-12.28 -5.34,-1.43 -8.5,-6.92 -7.06,-12.25 1.43,-5.34 6.92,-8.5 12.25,-7.06 z m 126.29,28.07 c 16.29,2.87 32.68,5.49 49.15,7.83 5.47,0.78 9.27,5.85 8.49,11.31 -0.78,5.47 -5.85,9.27 -11.31,8.49 -16.69,-2.37 -33.3,-5.02 -49.81,-7.94 -5.44,-0.96 -9.07,-6.15 -8.11,-11.59 0.96,-5.44 6.15,-9.06 11.59,-8.1 z m 128.25,16.92 c 16.48,1.45 33.03,2.63 49.66,3.53 5.51,0.3 9.74,5.01 9.44,10.53 -0.3,5.51 -5.01,9.74 -10.53,9.44 -16.85,-0.92 -33.62,-2.11 -50.31,-3.58 -5.51,-0.48 -9.57,-5.33 -9.1,-10.83 0.49,-5.5 5.34,-9.57 10.84,-9.09 z m 129.28,5.75 h 2.28 c 15.89,0 31.73,-0.25 47.5,-0.74 5.51,-0.18 10.13,4.16 10.3,9.68 0.18,5.51 -4.15,10.13 -9.67,10.31 -15.98,0.5 -32.03,0.75 -48.13,0.75 h -2.31 c -5.52,-0.01 -9.99,-4.49 -9.98,-10.01 0,-5.53 4.48,-10 10.01,-9.99 z m 129.27,-5.36 c 16.59,-1.4 33.1,-3.08 49.53,-5.03 5.48,-0.65 10.45,3.27 11.1,8.75 0.66,5.49 -3.26,10.46 -8.74,11.11 -16.66,1.98 -33.38,3.68 -50.2,5.1 -5.5,0.47 -10.34,-3.62 -10.81,-9.12 -0.47,-5.5 3.62,-10.34 9.12,-10.81 z m 128.32,-16.52 c 16.39,-2.84 32.69,-5.96 48.9,-9.34 5.4,-1.12 10.7,2.35 11.82,7.75 1.13,5.41 -2.34,10.71 -7.74,11.84 -16.43,3.42 -32.95,6.57 -49.56,9.45 -5.45,0.95 -10.62,-2.7 -11.56,-8.14 -0.95,-5.44 2.7,-10.62 8.14,-11.56 z m 126.38,-27.68 c 16.07,-4.27 32.04,-8.8 47.89,-13.58 5.28,-1.6 10.87,1.39 12.46,6.67 1.6,5.29 -1.39,10.87 -6.67,12.47 -16.08,4.85 -32.26,9.45 -48.55,13.77 -5.34,1.42 -10.81,-1.76 -12.23,-7.1 -1.41,-5.34 1.76,-10.81 7.11,-12.23 z m 123.64,-38.72 c 15.67,-5.68 31.21,-11.61 46.63,-17.8 5.13,-2.05 10.95,0.44 13,5.56 2.06,5.13 -0.43,10.95 -5.55,13 -15.63,6.27 -31.39,12.29 -47.27,18.04 -5.19,1.88 -10.93,-0.8 -12.81,-5.99 -1.89,-5.2 0.8,-10.93 5.99,-12.81 z m 119.84,-49.49 c 15.09,-7.02 30.05,-14.29 44.86,-21.8 4.92,-2.5 10.94,-0.53 13.43,4.4 2.5,4.92 0.53,10.94 -4.39,13.44 -15.01,7.61 -30.17,14.98 -45.46,22.1 -5.01,2.33 -10.96,0.16 -13.29,-4.85 -2.33,-5.01 -0.16,-10.96 4.85,-13.29 z m 114.97,-59.77 c 14.41,-8.31 28.66,-16.85 42.76,-25.63 4.68,-2.91 10.85,-1.48 13.77,3.21 2.92,4.69 1.48,10.86 -3.21,13.77 -14.28,8.9 -28.72,17.56 -43.33,25.98 -4.78,2.76 -10.9,1.11 -13.66,-3.67 -2.76,-4.78 -1.11,-10.9 3.67,-13.66 z m 109.27,-69.55 c 13.61,-9.53 27.06,-19.27 40.33,-29.24 4.42,-3.32 10.69,-2.42 14,1.99 3.32,4.42 2.43,10.69 -1.99,14.01 -13.45,10.1 -27.08,19.98 -40.88,29.63 -4.53,3.17 -10.76,2.06 -13.93,-2.46 -3.16,-4.53 -2.06,-10.76 2.47,-13.93 z m 102.76,-78.76 c 12.72,-10.66 25.27,-21.54 37.63,-32.62 4.11,-3.68 10.43,-3.34 14.12,0.78 3.68,4.11 3.34,10.43 -0.77,14.12 -12.53,11.22 -25.24,22.24 -38.14,33.05 -4.24,3.55 -10.55,2.99 -14.09,-1.24 -3.55,-4.24 -2.99,-10.55 1.25,-14.09 z m 95.5,-87.34 c 11.74,-11.72 23.29,-23.63 34.64,-35.74 3.78,-4.03 10.1,-4.23 14.13,-0.45 4.04,3.77 4.24,10.1 0.46,14.13 -11.5,12.27 -23.21,24.34 -35.11,36.21 -3.91,3.91 -10.24,3.9 -14.14,-0.01 -3.91,-3.91 -3.9,-10.24 0.01,-14.14 z m 87.54,-95.25 c 10.68,-12.68 21.15,-25.54 31.4,-38.58 3.42,-4.34 9.71,-5.1 14.05,-1.68 4.34,3.41 5.09,9.7 1.68,14.04 -10.4,13.22 -21.01,26.25 -31.83,39.1 -3.56,4.23 -9.87,4.77 -14.1,1.21 -4.22,-3.56 -4.76,-9.87 -1.2,-14.09 z m 78.92,-102.43 c 9.53,-13.55 18.84,-27.26 27.93,-41.14 3.02,-4.62 9.22,-5.91 13.84,-2.88 4.61,3.02 5.91,9.22 2.89,13.84 -9.21,14.06 -18.64,27.96 -28.3,41.69 -3.18,4.51 -9.42,5.6 -13.94,2.42 -4.51,-3.18 -5.6,-9.41 -2.42,-13.93 z m 69.7,-108.84 c 8.31,-14.31 16.38,-28.77 24.22,-43.38 2.61,-4.86 8.67,-6.69 13.54,-4.08 4.87,2.61 6.69,8.67 4.09,13.54 -7.95,14.8 -16.13,29.46 -24.56,43.96 -2.77,4.78 -8.89,6.4 -13.67,3.63 -4.77,-2.78 -6.39,-8.89 -3.62,-13.67 z m 59.91,-114.43 c 7.02,-14.96 13.8,-30.05 20.33,-45.28 2.17,-5.08 8.05,-7.43 13.12,-5.25 5.08,2.17 7.43,8.05 5.26,13.13 -6.62,15.43 -13.48,30.73 -20.6,45.9 -2.35,5 -8.3,7.15 -13.3,4.8 -5,-2.34 -7.15,-8.3 -4.8,-13.3 z m 49.66,-119.13 c 5.69,-15.56 11.14,-31.23 16.32,-47.02 1.72,-5.25 7.38,-8.11 12.62,-6.39 5.25,1.73 8.11,7.38 6.39,12.62 -5.26,16.01 -10.78,31.9 -16.55,47.66 -1.9,5.19 -7.65,7.86 -12.84,5.96 -5.18,-1.9 -7.85,-7.64 -5.95,-12.83 z m 39.11,-123.32 c 4.3,-15.99 8.35,-32.08 12.13,-48.27 1.26,-5.38 6.63,-8.72 12.01,-7.47 5.37,1.26 8.72,6.63 7.46,12.01 -3.82,16.42 -7.93,32.73 -12.29,48.93 -1.44,5.33 -6.93,8.49 -12.26,7.06 -5.34,-1.44 -8.5,-6.93 -7.06,-12.26 z m 28.13,-126.28 c 2.89,-16.29 5.51,-32.67 7.86,-49.14 0.77,-5.47 5.84,-9.27 11.31,-8.49 5.47,0.78 9.27,5.84 8.49,11.31 -2.38,16.69 -5.04,33.3 -7.97,49.81 -0.96,5.44 -6.15,9.07 -11.59,8.1 -5.43,-0.96 -9.06,-6.15 -8.09,-11.59 z m 16.99,-128.24 c 1.45,-16.48 2.64,-33.03 3.56,-49.66 0.3,-5.51 5.01,-9.73 10.53,-9.43 5.51,0.3 9.73,5.02 9.43,10.53 -0.92,16.85 -2.12,33.62 -3.6,50.32 -0.49,5.5 -5.34,9.56 -10.84,9.08 -5.51,-0.49 -9.57,-5.34 -9.08,-10.85 z m 5.82,-129.28 c 0,-1.02 0,-2.04 0,-3.06 0,-16.66 -0.27,-33.25 -0.82,-49.78 -0.18,-5.52 4.14,-10.14 9.67,-10.32 5.52,-0.18 10.14,4.14 10.32,9.66 0.55,16.75 0.83,33.56 0.83,50.44 0,1.03 0,2.07 0,3.1 -0.02,5.52 -4.5,9.99 -10.03,9.98 -5.52,-0.01 -9.99,-4.5 -9.97,-10.02"
         style="fill:#393536;fill-opacity:1;fill-rule:nonzero;stroke:none"
         id="path118" />
      <path
         d="m 2448.2,3614.35 c 0,-177.95 -144.25,-322.22 -322.2,-322.22 -177.97,0 -322.23,144.27 -322.23,322.22 0,177.97 144.26,322.23 322.23,322.23 177.95,0 322.2,-144.26 322.2,-322.23"
         style="fill:#aad92b;fill-opacity:1;fill-rule:nonzero;stroke:#000000;stroke-width:15.24750038;stroke-dasharray:none;stroke-opacity:1"
         id="path120" />
      <path
         d="m 2448.2,637.609 c 0,-177.961 -144.25,-322.218 -322.2,-322.218 -177.97,0 -322.23,144.257 -322.23,322.218 0,177.95 144.26,322.211 322.23,322.211 177.95,0 322.2,-144.261 322.2,-322.211"
         style="fill:#f14827;fill-opacity:1;fill-rule:nonzero;stroke:none"
         id="path122" />
      <path
         d="m 3614.38,1803.77 c -177.97,0 -322.25,144.25 -322.25,322.2 0,177.99 144.28,322.25 322.25,322.25 177.94,0 322.2,-144.26 322.2,-322.25 0,-177.95 -144.26,-322.2 -322.2,-322.2"
         style="fill:#38998e;fill-opacity:1;fill-rule:nonzero;stroke:#000000;stroke-opacity:1;stroke-width:15.24750038;stroke-dasharray:none"
         id="path124" />
      <path
         d="m 637.637,1803.77 c -177.989,0 -322.246,144.25 -322.246,322.2 0,177.99 144.257,322.25 322.246,322.25 177.949,0 322.207,-144.26 322.207,-322.25 0,-177.95 -144.258,-322.2 -322.207,-322.2"
         style="fill:#38998e;fill-opacity:1;fill-rule:nonzero;stroke:#000000;stroke-opacity:1;stroke-width:15.24750038;stroke-dasharray:none"
         id="path126" />
      <path
         d="m 1301.39,3406.27 c 125.84,-125.84 125.84,-329.85 0,-455.69 -125.82,-125.84 -329.827,-125.84 -455.706,0 -125.821,125.82 -125.821,329.85 0.019,455.69 125.86,125.84 329.867,125.84 455.687,0"
         style="fill:#f14827;fill-opacity:1;fill-rule:nonzero;stroke:none"
         id="path128" />
      <path
         d="m 3406.27,1301.38 c 125.84,-125.82 125.84,-329.841 0,-455.681 -125.84,-125.84 -329.86,-125.84 -455.7,0 -125.82,125.84 -125.82,329.861 0.02,455.681 125.82,125.86 329.84,125.86 455.68,0"
         style="fill:#aad92b;fill-opacity:1;fill-rule:nonzero;stroke:#000000;stroke-opacity:1;stroke-width:15.00000038;stroke-dasharray:none"
         id="path130" />
      <path
         d="m 3406.27,2950.58 c -125.84,-125.84 -329.86,-125.84 -455.68,-0.02 -125.84,125.86 -125.84,329.87 0,455.71 125.82,125.84 329.84,125.84 455.68,0 125.84,-125.84 125.82,-329.85 0,-455.69"
         style="fill:#f14827;fill-opacity:1;fill-rule:nonzero;stroke:none"
         id="path132" />
      <path
         d="m 1301.41,845.719 c -125.84,-125.86 -329.847,-125.86 -455.707,-0.02 -125.84,125.84 -125.84,329.861 0,455.681 125.86,125.86 329.867,125.86 455.707,0 125.82,-125.82 125.82,-329.841 0,-455.661"
         style="fill:#aad92b;fill-opacity:1;fill-rule:nonzero;stroke:#000000;stroke-width:15.00000038;stroke-dasharray:none;stroke-opacity:1"
         id="path134" />
      <path
         d="m 2179.96,3694.68 c 0,-36.36 -29.22,-65.82 -65.27,-65.82 -36.1,0 -65.33,29.46 -65.33,65.82 0,36.35 29.23,65.8 65.33,65.8 36.05,0 65.27,-29.45 65.27,-65.8"
         style="fill:#ffffff;fill-opacity:1;fill-rule:nonzero;stroke:none"
         id="path136" />
      <path
         d="m 2207.81,3425.35 h -173.96 c 0,91.48 13.18,180.94 86.29,180.94 56.83,0 87.67,-89.46 87.67,-180.94"
         style="fill:#ffffff;fill-opacity:1;fill-rule:nonzero;stroke:none"
         id="path138" />
      <path
         d="m 2223.26,3803.36 c -30.6,0 -56.21,-21.23 -63.26,-49.89 17.75,-12.56 29.26,-32.72 30.82,-57.04 l 0.18,-1.75 -0.18,-1.84 c -0.25,-3.8 -0.9,-7.58 -1.68,-11.32 9.96,-6.16 21.6,-9.75 34.12,-9.75 36.1,0 65.33,29.42 65.33,65.8 0,36.35 -29.23,65.79 -65.33,65.79"
         style="fill:#ffffff;fill-opacity:1;fill-rule:nonzero;stroke:none"
         id="path140" />
      <path
         d="m 2216.46,3468.23 h 99.99 c 0,91.48 -30.86,180.95 -87.66,180.95 -33.67,0 -54.59,-18.98 -67.42,-48.37 36.15,-24.93 50.17,-83.87 55.09,-132.58"
         style="fill:#ffffff;fill-opacity:1;fill-rule:nonzero;stroke:none"
         id="path142" />
      <path
         d="m 2039.8,3694.68 c 1.2,26.31 15.86,51.79 38.21,64.36 -8.87,25.78 -33.11,44.32 -61.66,44.32 -36.1,0 -65.35,-29.44 -65.35,-65.79 0,-36.38 29.25,-65.8 65.35,-65.8 8.92,0 17.44,1.81 25.23,5.09 -1.37,5.66 -2.07,11.59 -1.78,17.82"
         style="fill:#ffffff;fill-opacity:1;fill-rule:nonzero;stroke:none"
         id="path144" />
      <path
         d="m 2081.05,3605.19 c -14.53,26.92 -34.39,43.99 -59.25,43.99 -73.05,0 -86.29,-89.47 -86.29,-180.95 h 89.82 c 2.72,51.97 13.4,115.38 55.72,136.96"
         style="fill:#ffffff;fill-opacity:1;fill-rule:nonzero;stroke:none"
         id="path146" />
      <path
         d="m 447.813,2115.19 h 67.011 c 1.426,-26.91 8.145,-53.38 19.942,-79.08 -17.911,-14.16 -29.942,-29.28 -36.7,-39.04 -29.043,31.42 -47.695,72.67 -50.253,118.12 z m 51.699,141.27 c 11.093,-13.04 22.597,-24.47 34.492,-34.24 -10.508,-24.23 -17.91,-52.65 -19.219,-85.39 h -66.972 c 2.617,46.18 21.835,87.99 51.699,119.63 z m 267.402,-119.63 c -1.289,31.27 -8.086,58.56 -17.851,82.07 14.101,11.49 24.394,23.44 31.21,32.52 27.266,-30.93 44.668,-70.8 47.129,-114.59 z m -21.328,-103.55 c 12.617,26.56 19.785,54.02 21.25,81.91 h 60.566 c -2.48,-44.02 -20.039,-84.08 -47.519,-115.13 -11.016,12.69 -22.5,23.75 -34.297,33.22 z m -10.332,-19.49 c 10.098,-8.36 19.902,-18.09 29.375,-29.12 -25.02,-22.5 -56.055,-38.48 -90.293,-45.2 25.449,23.57 45.781,48.48 60.918,74.32 z m -105.234,37.05 v -102.7 c -29.2,25.63 -51.778,52.87 -67.54,81.12 17.657,10.89 40.04,19.66 67.54,21.58 z m 0,64.35 v -42.67 c -31.329,-1.92 -56.934,-11.59 -77.188,-23.83 -9.531,21.74 -15.039,44.02 -16.328,66.5 z m 0,65.92 v -44.28 h -93.614 c 1.153,25.43 6.367,49.5 15.606,72.11 24.902,-16.42 51.133,-25.84 78.008,-27.83 z m -86.133,61.11 c -9.824,8.4 -19.356,18.13 -28.614,29.12 24.512,20.61 54.2,35.18 86.856,41.39 -18.301,-15.45 -40.723,-38.71 -58.242,-70.51 z m 46.758,28.7 c 14.355,16.42 28.828,28.37 39.375,36.07 v -104.18 c -23.497,2.07 -46.563,10.84 -68.672,25.92 7.929,14.8 17.675,28.88 29.297,42.19 z m 61.015,-68.19 v 104.26 c 10.528,-7.7 25.02,-19.65 39.336,-36.07 12.402,-14.18 22.637,-29.22 30.859,-45.08 -18.066,-11.66 -41.308,-21.16 -70.195,-23.11 z m 0,-65.9 v 44.22 c 32.363,1.88 58.633,12.11 79.199,24.88 8.477,-21.69 13.321,-44.78 14.434,-69.1 z m 0,-64.33 v 42.69 h 93.535 c -1.406,-23.4 -7.285,-46.5 -17.5,-69.08 -24.297,15.57 -49.882,24.49 -76.035,26.39 z m 0,-124.36 v 102.64 c 22.578,-1.92 44.824,-10.04 66.094,-24.02 -15.606,-27.37 -37.774,-53.74 -66.094,-78.62 z m 87.871,290.96 c -17.148,32.13 -39.316,55.82 -57.812,71.76 31.465,-7.48 59.961,-22.78 83.203,-43.81 -5.176,-7.33 -13.594,-17.66 -25.391,-27.95 z M 544.844,2016.5 c 15.527,-27.36 37.011,-53.65 64.062,-78.48 -35.976,5.53 -68.652,21.12 -95.039,43.83 4.785,7.44 14.942,21.21 30.977,34.65 z m 92.773,321.23 c -116.738,0 -211.719,-94.98 -211.719,-211.72 0,-116.79 94.981,-211.75 211.719,-211.75 116.738,0 211.719,94.96 211.719,211.75 0,116.74 -94.981,211.72 -211.719,211.72"
         style="fill:#ffffff;fill-opacity:1;fill-rule:nonzero;stroke:none"
         id="path148" />
      <path
         d="m 939.648,1033.19 c -13.925,19.51 -40.332,50.01 -40.332,115.52 0,53.27 40.821,107.72 115.784,126.22 -0.43,-2.04 -0.67,-4.16 -0.67,-6.33 v -111.94 c -22.555,-13.18 -35.485,-39.55 -30.289,-66.67 6.582,-34.42 39.809,-56.98 74.219,-50.4 2.03,0.39 4,0.88 5.96,1.44 18.98,-22.03 48.26,-36.07 76.54,-40.9 2.15,-5.122 7.66,-8.22 13.34,-7.142 6.5,1.25 10.78,7.542 9.53,14.062 -1.25,6.52 -7.54,10.8 -14.06,9.55 -4.34,-0.83 -7.68,-3.92 -9.06,-7.8 -23.11,7.47 -45.12,20.95 -59.73,39.81 21.01,13.6 32.85,39.05 27.87,65.2 -3.83,20.02 -16.7,36.02 -33.57,44.62 v 110.17 c 0,4.62 -1.04,9 -2.89,12.93 98.1,-0.11 139.16,-84.35 139.16,-128.92 0,0 -6.49,-42.04 6.99,-58.77 13.45,-16.71 40.64,-37.15 23.92,-45.99 -16.72,-8.82 -23.24,-15.78 -23.24,-24.61 0,-8.84 5.24,-16.79 -1.91,-19.23 -7.15,-2.43 -7.66,-4.53 -5.06,-6.092 2.62,-1.578 10.82,-10.289 2.28,-15.156 -8.53,-4.883 -13.26,-12.211 -11.68,-17.082 1.57,-4.879 16.37,-24.559 -5.58,-30.489 -21.96,-5.921 -54.01,-2.781 -64.81,-10.453 -10.8,-7.648 -26.46,-49.109 -17.75,-70.019 H 927.969 c 0,0 17.988,76.211 19.375,102.082 0,0 6.25,56.879 -7.696,76.389"
         style="fill:#ffffff;fill-opacity:1;fill-rule:nonzero;stroke:none"
         id="path150" />
      <path
         d="m 1042.5,1161.69 c -8.18,-1.03 -15.84,-3.43 -22.79,-6.94 v 113.85 c 0,13.14 10.64,23.78 23.77,23.78 13.14,0 23.79,-10.64 23.79,-23.78 v -108.24 c -7.89,1.86 -16.23,2.39 -24.77,1.33"
         style="fill:#ffffff;fill-opacity:1;fill-rule:nonzero;stroke:none"
         id="path152" />
      <path
         d="m 2096.72,671.449 c 6.58,-6.687 17.34,-6.769 24.06,-0.199 6.7,6.59 6.78,17.359 0.18,24.059 l -59.79,60.8 c -6.58,6.7 -17.36,6.782 -24.04,0.2 -6.7,-6.59 -6.8,-17.368 -0.22,-24.071 l 59.81,-60.789"
         style="fill:#ffffff;fill-opacity:1;fill-rule:nonzero;stroke:none"
         id="path154" />
      <path
         d="m 2035.45,722.711 c -6.58,6.699 -17.36,6.789 -24.06,0.207 -6.7,-6.59 -6.78,-17.359 -0.2,-24.059 l 56.86,-57.808 c 6.58,-6.699 16.25,-5.66 22.93,0.918 6.72,6.582 7.91,16.23 1.32,22.929 l -56.85,57.813"
         style="fill:#ffffff;fill-opacity:1;fill-rule:nonzero;stroke:none"
         id="path156" />
      <path
         d="m 2040.88,658.84 -34.86,35.441 c -6.61,6.688 -17.35,6.789 -24.07,0.207 -6.68,-6.578 -6.77,-17.359 -0.17,-24.058 l 34.84,-35.442 c 6.58,-6.687 17.36,-6.789 24.04,-0.199 6.7,6.582 6.8,17.359 0.22,24.051"
         style="fill:#ffffff;fill-opacity:1;fill-rule:nonzero;stroke:none"
         id="path158" />
      <path
         d="m 2067.73,786.422 c -6.69,-6.594 -6.77,-17.363 -0.19,-24.063 l 51.54,-52.418 c -2.54,4.508 -3.77,9.789 -3.2,15.207 0.12,1.262 0.35,2.524 0.66,3.75 2.03,8 7.66,14.141 14.69,17.211 l -39.43,40.11 c -6.59,6.711 -17.37,6.793 -24.07,0.203"
         style="fill:#ffffff;fill-opacity:1;fill-rule:nonzero;stroke:none"
         id="path160" />
      <path
         d="m 2124.94,726.469 c -2.3,-9.098 3.2,-18.36 12.31,-20.68 l 32.79,-8.348 -8.05,-31.691 c -2.32,-9.109 3.19,-18.371 12.29,-20.68 9.12,-2.32 18.36,3.192 20.68,12.289 l 12.25,48.161 c 2.32,9.121 -3.17,18.371 -12.29,20.691 l -0.53,0.109 -0.6,0.18 -48.15,12.27 c -9.12,2.3 -18.37,-3.2 -20.7,-12.301"
         style="fill:#ffffff;fill-opacity:1;fill-rule:nonzero;stroke:none"
         id="path162" />
      <path
         d="m 2224.06,634.781 -99.1,-97.453 64.16,-65.058 99.1,97.468 -64.16,65.043"
         style="fill:#ffffff;fill-opacity:1;fill-rule:nonzero;stroke:none"
         id="path164" />
      <path
         d="m 2172.21,637.52 c -12.25,3.121 -20.53,14.96 -19.24,27.539 0.14,1.25 0.35,2.5 0.68,3.73 l 5.9,23.25 -18.4,4.68 c -3.08,-1.141 -6.36,-1.66 -9.65,-1.571 4.77,-9.679 3.09,-21.738 -5.02,-29.707 -5.95,-5.871 -14.06,-8.203 -21.77,-7.082 1.15,-7.66 -1.55,-15.859 -7.99,-22.211 -10.45,-10.269 -25.63,-10.628 -35.27,-0.808 l -7.74,7.859 c -0.84,-5.23 -3.26,-10.238 -7.3,-14.238 -3.81,-3.711 -8.46,-6.02 -13.32,-6.922 -0.1,-4.859 1.5,-9.5 4.94,-13 l 33.85,-34.398 c 6.58,-6.7 17.57,-6.832 26.05,-0.813 l 15.51,-15.789 c 6.66,-6.769 17.38,-7.059 23.9,-0.617 l 65.16,64.078 c 6.56,6.43 6.45,17.141 -0.21,23.93 l -2.5,2.539 c -5.92,-8.668 -16.82,-13.18 -27.58,-10.449"
         style="fill:#ffffff;fill-opacity:1;fill-rule:nonzero;stroke:none"
         id="path166" />
      <path
         d="m 2140.08,748.391 1.35,0.05 c 2.16,0 4.33,-0.273 6.46,-0.812 l 34.34,-8.75 9.9,11.351 c 6.21,-1.351 26.33,-13.601 37.77,-28.039 8.56,-10.832 14.79,-19.511 24.32,-19.031 l 0.02,-0.172 0.31,0.16 c 4.67,0.34 10.12,2.864 16.97,8.321 25.04,19.929 67.39,80.961 49.14,99.64 -10.46,10.743 -36.99,28.832 -69.8,31.602 l -1.99,0.16 -1.41,0.117 c -1.58,0.071 -3.16,0.133 -4.69,0.133 l -0.74,-0.019 c -1.17,0 -2.34,-0.043 -3.49,-0.09 -6.78,-0.274 -13.72,-1.25 -20.79,-3.121 -31.46,-5.93 -59.25,-12.262 -110.87,-55.95 l 30.87,-31.41 c 1.16,-1.172 1.94,-2.609 2.33,-4.14"
         style="fill:#ffffff;fill-opacity:1;fill-rule:nonzero;stroke:none"
         id="path168" />
      <path
         d="m 2023.96,621.211 c -5.23,0.957 -10.03,3.469 -13.86,7.359 l -27.8,28.25 c -47.18,-54.461 -41.25,-59.34 -52.94,-94.398 -3.25,-11.602 -2.39,-50.133 -2.39,-50.133 1.35,-34.949 14.61,-62.648 24.42,-74.379 5.82,-7.012 17.63,-7.09 31.34,-3.34 l -0.11,0.129 c 6.11,1.68 24.29,9.75 33.45,13.903 16,8.726 30.84,19.378 39.38,28.136 18.98,19.434 8.4,28.102 -6.49,42.524 -13.18,12.808 -18.55,38.797 -19.29,45.097 l 18.57,21.243 -16.74,17.019 c -4.78,4.879 -7.44,11.457 -7.54,18.59"
         style="fill:#ffffff;fill-opacity:1;fill-rule:nonzero;stroke:none"
         id="path170" />
      <path
         d="m 3275.72,3137.44 c -4.59,-6.27 -11.27,-11.1 -18.45,-13.72 -0.36,-0.3 -26.64,-23.71 -32.86,-22.98 0,0 -100.46,39.1 -147.83,171.69 0,0 7.64,14.48 13.46,24.65 1.05,7.09 4.32,13.51 9.1,18.26 -0.59,2.08 -0.02,4.36 1.7,5.84 l 6.99,6.04 c 2.35,2.01 5.82,1.72 7.83,-0.7 l 4.3,-5.12 c 5.72,-2.28 11.92,-6.52 17.74,-12.9 5.76,-6.3 10.54,-15.28 12.73,-23.27 l 5.18,-6.15 c 2.01,-2.35 1.73,-5.98 -0.57,-7.96 l -6.99,-6.05 c -1.25,-1.11 -2.87,-1.48 -4.38,-1.25 -0.33,-1.79 -1.07,-3.24 -2.32,-4.16 -2.07,-1.5 -4.44,-2.5 -6.97,-3.12 l 0.7,0.01 c 0,0 -13.93,-13.22 -6.95,-21.06 6.95,-7.91 54.49,-59.96 66.56,-72.19 0,0 11.27,-7.38 17.32,-2.05 0.29,1.42 0.67,2.84 1.12,4.26 0.44,1.35 1.38,2.36 2.73,3.1 -0.86,1.6 -1,3.58 -0.16,5.33 l 4.12,8.3 c 1.41,2.76 4.81,3.87 7.5,2.46 l 54.63,-28.2 c 2.72,-1.42 3.85,-4.86 2.46,-7.67 l -4.08,-8.32 c -0.94,-1.84 -2.71,-2.93 -4.61,-3.07 z m 4.85,-79.01 c 0,0 162.07,81.08 107.77,204.12 -54.24,122.93 -192.71,125.43 -208.3,125.3 l -1.45,-0.08 c 0,0 -2.75,0.19 -7.75,0.16 -25.64,-0.22 -109.49,-6 -168.81,-69.77 -70.86,-76.13 -53.96,-176.84 26.51,-235.51 52.73,-38.49 116.95,-44.69 154.96,-44.39 19.96,0.14 32.73,2.09 32.73,2.09 29.67,-63.01 88.59,-71.66 120.35,-71.43 12.95,0.1 21.37,1.68 21.37,1.68 -75.16,42.21 -77.38,87.83 -77.38,87.83"
         style="fill:#ffffff;fill-opacity:1;fill-rule:nonzero;stroke:none"
         id="path172" />
      <path
         d="m 3523.73,2084.43 c -33.73,6.99 -66.66,-16.23 -73.52,-49.41 -7.08,-33.76 16.2,-66.7 49.44,-73.62 33.77,-7.02 66.66,16.22 73.53,49.49 0.32,1.39 0.32,2.74 0.43,4.16 l 0.39,1.92 c 3.11,31.94 -19.04,60.97 -50.27,67.46"
         style="fill:#ffffff;fill-opacity:1;fill-rule:nonzero;stroke:none"
         id="path174" />
      <path
         d="m 3537.79,2196.31 c 26.72,-3.06 52.6,-13.27 75.94,-26.25 63.81,-35.61 81.52,-105.15 72.42,-173.51 -2.63,-19.9 28.03,-24.76 30.69,-4.95 9.9,74 -7,144.98 -67.91,192.11 -29.54,22.87 -68.93,39 -106.2,43.24 -19.92,2.32 -24.76,-28.38 -4.94,-30.64"
         style="fill:#ffffff;fill-opacity:1;fill-rule:nonzero;stroke:none"
         id="path176" />
      <path
         d="m 3563.48,2275.23 c 38.88,-4.39 77.97,-19.47 111.03,-39.63 86.15,-52.44 110.88,-146.15 97.72,-241.7 -2.74,-19.83 27.98,-24.7 30.62,-4.88 13.83,100.14 -9.69,197.35 -93.06,260.1 -39.71,29.91 -91.78,51.19 -141.31,56.87 -19.94,2.21 -24.93,-28.49 -5,-30.76"
         style="fill:#ffffff;fill-opacity:1;fill-rule:nonzero;stroke:none"
         id="path178" />
      <path
         d="m 3519.32,2124.24 c 63.22,-7.23 98,-59.25 89.76,-120.79 -2.63,-19.86 28.09,-24.74 30.74,-4.88 6.49,49.04 -4.98,96.31 -45.29,127.62 -19.55,15.16 -45.6,25.92 -70.37,28.77 -19.8,2.19 -24.71,-28.44 -4.84,-30.72"
         style="fill:#ffffff;fill-opacity:1;fill-rule:nonzero;stroke:none"
         id="path180" />
      <path
         d="m 1182.27,3067.88 h -0.04 l -217.679,0.25 0.293,260.56 217.716,-0.24 z m -108.93,-64.95 v 0 c -12.95,0 -23.44,10.52 -23.42,23.39 0,12.94 10.53,23.43 23.42,23.43 12.97,-0.03 23.42,-10.53 23.42,-23.46 -0.04,-12.92 -10.47,-23.36 -23.42,-23.36 z m -41.05,351.03 h 0.09 l 82.68,-0.1 c 3.85,0 7.03,-3.13 7.03,-7.01 -0.02,-3.85 -3.18,-6.99 -7.03,-6.99 l -82.77,0.06 c -3.79,0.02 -6.96,3.18 -6.96,7.05 0,3.87 3.17,6.99 6.96,6.99 z m 135.97,15.61 -189.061,0.16 c -18.672,0 -33.847,-15.1 -33.906,-33.8 l -0.313,-314.74 c 0,-18.65 15.118,-33.86 33.809,-33.89 l 189.061,-0.17 c 18.71,0 33.93,15.07 33.93,33.78 l 0.31,314.73 c 0.04,18.7 -15.14,33.9 -33.83,33.93"
         style="fill:#ffffff;fill-opacity:1;fill-rule:nonzero;stroke:none"
         id="path182" />
      <path
         d="m 3136.46,1052.99 c 18.09,-16.55 39.93,-21.63 42.45,-22.15 l 0.43,-0.11 0.17,-0.03 0.63,0.14 0.7,0.15 c 4.69,1.06 25.72,6.47 42.77,22 l 1.1,0.02 -16.23,-41.55 -28.97,18.98 -29,-18.98 -16.17,41.55 z m 9.18,20.98 0.69,-0.43 c 1.35,-0.81 2.71,-1.63 4.1,-2.38 1.45,-0.81 2.93,-1.53 4.37,-2.23 l 1.66,-0.75 c 1.47,-0.64 2.95,-1.23 4.4,-1.78 l 1.39,-0.45 c 1.36,-0.46 2.75,-0.87 4.08,-1.24 l 1.33,-0.34 c 1.32,-0.31 2.65,-0.54 3.92,-0.73 l 1.21,-0.21 c 1.64,-0.2 3.25,-0.31 4.77,-0.31 1.78,0 3.55,0.1 5.35,0.31 l 0.33,0.08 c 11.94,1.5 24.79,7.8 36.43,19.12 v -24.86 l -1.19,-1.08 -1.57,-1.37 -1.5,-1.19 -1.6,-1.27 -1.54,-1.09 -1.61,-1.17 -1.5,-0.97 -1.68,-1.06 -1.46,-0.88 -1.64,-0.96 -1.49,-0.8 -1.6,-0.87 -1.52,-0.74 -1.49,-0.73 -1.5,-0.69 -1.39,-0.64 -1.6,-0.64 -1.17,-0.5 -1.64,-0.63 -0.94,-0.36 -1.74,-0.6 -0.64,-0.24 -2.07,-0.66 -0.12,-0.02 c -2.76,-0.88 -4.83,-1.39 -5.94,-1.63 -3.59,0.85 -18.22,4.77 -32.32,15.14 l -0.1,0.09 c -1.95,1.45 -3.87,3.02 -5.78,4.71 l -0.2,0.13 v 19.91 c 1.53,-1.05 3.03,-2.04 4.51,-2.99 z m -46.95,77.86 -0.82,2.76 -2.79,-0.46 c -0.26,0 -2.83,0.19 -7.23,6.66 -4.67,6.87 -6.19,18.55 -4.69,25.34 0.67,-1.09 1.61,-2.01 2.68,-2.62 0.18,-3.99 3.46,-7.18 7.46,-7.18 4.14,0 7.52,3.35 7.52,7.5 v 0.25 c 1.09,-0.69 2.38,-1.08 3.79,-1.08 4.14,0 7.5,3.34 7.5,7.49 0,2.26 -0.98,4.25 -2.6,5.61 1.31,1.38 2.07,3.17 2.07,5.17 0,2.15 -0.88,4.08 -2.38,5.43 3.55,0.61 6.25,3.68 6.25,7.38 0,1.52 -0.47,2.93 -1.25,4.14 3.09,0.92 5.33,3.76 5.33,7.17 0,1.6 -0.51,3.06 -1.37,4.31 3.89,0.22 7.05,3.46 7.05,7.46 0,1.35 -0.42,2.6 -1.01,3.7 2.95,0.97 5.06,3.78 5.06,7.07 0,1.27 -0.3,2.44 -0.88,3.51 0.8,-0.32 1.7,-0.52 2.64,-0.52 2.55,0 4.84,1.3 6.17,3.28 0.47,-3.71 3.57,-6.6 7.44,-6.6 2.19,0 4.16,0.97 5.57,2.53 0.82,-3.2 3.73,-5.62 7.22,-5.62 2.97,0 5.49,1.76 6.74,4.28 l 1.54,-0.12 c 1.35,-1.74 3.46,-2.85 5.86,-2.85 2.23,0 4.24,1.02 5.59,2.62 l 1.25,0.05 c 1.35,-1.65 3.4,-2.67 5.68,-2.67 2.99,0 5.51,1.74 6.76,4.24 l 0.14,0.03 c 1.36,-1.96 3.63,-3.27 6.17,-3.27 3.89,0 7.01,2.94 7.42,6.69 1.35,-1.42 3.3,-2.32 5.41,-2.32 2.09,0 4,0.88 5.37,2.26 0.18,-3.98 3.44,-7.12 7.44,-7.12 l 0.28,0.02 c -1,-1.28 -1.62,-2.84 -1.62,-4.57 0,-3.66 2.63,-6.71 6.09,-7.39 -0.92,-1.23 -1.47,-2.75 -1.47,-4.43 0,-2.74 1.51,-5.14 3.72,-6.44 -0.4,-0.94 -0.65,-1.95 -0.65,-3.01 0,-3.75 2.74,-6.84 6.29,-7.4 -1.04,-1.29 -1.66,-2.88 -1.66,-4.66 0,-3.24 2.05,-5.97 4.88,-7.03 -1.83,-1.37 -3.08,-3.57 -3.08,-6.05 0,-4.14 3.34,-7.51 7.48,-7.51 l 0.29,0.02 -0.1,-0.72 c 0,-4.16 3.34,-7.49 7.5,-7.49 2.35,0 4.34,1.05 5.72,2.67 2.49,0.48 4.42,2.13 5.43,4.31 1.68,-6.69 0.26,-18.79 -4.57,-25.88 -4.06,-6.09 -6.56,-6.59 -7.01,-6.63 l -2.3,-0.19 -0.47,-2.23 c -5.55,-27.02 -16.43,-47.6 -29.2,-61.45 l -0.2,-0.23 c -1.44,-1.54 -2.89,-2.97 -4.35,-4.34 l -1.11,-0.98 c -1.23,-1.11 -2.45,-2.13 -3.68,-3.12 l -1.91,-1.43 c -1.04,-0.75 -2.07,-1.48 -3.07,-2.17 l -2.54,-1.54 c -0.91,-0.52 -1.79,-1.05 -2.69,-1.51 -0.98,-0.51 -1.93,-0.95 -2.89,-1.38 l -2.42,-1.07 c -1.02,-0.42 -2.09,-0.75 -3.17,-1.08 l -2.17,-0.7 c -1.17,-0.31 -2.32,-0.53 -3.47,-0.73 l -1.86,-0.36 c -1.77,-0.25 -3.51,-0.37 -5.25,-0.37 -1.47,0 -2.99,0.1 -4.57,0.33 l -0.45,0.09 c -1.52,0.21 -3.03,0.51 -4.59,0.93 l -0.2,0.06 c -24.12,6.42 -57.44,34.73 -69.06,81.16 z m 91.94,135.77 v -0.01 h -0.02 z m 89.08,-251.51 v -0.25 l -47.64,19.16 1.62,4.26 -7.89,-0.08 v 29.97 c 11.8,13.89 21.74,33.56 27.36,59.43 3.05,1.16 6.14,4.1 9.24,8.77 5.88,8.64 8.13,24.46 4.75,33.16 -1.78,4.55 -4.53,6.05 -6.54,6.52 -0.92,0.23 -1.74,0.27 -2.62,0.24 v 0.02 c 2.69,1.13 4.61,3.7 4.61,6.79 0,3.41 -2.29,6.1 -5.37,7.03 l -0.12,1.16 c 2.32,1.27 3.93,3.66 3.93,6.52 0,3.28 -2.09,6.03 -5.02,7.04 1.3,1.35 2.16,3.21 2.16,5.25 0,3.82 -2.87,6.92 -6.5,7.4 1.64,1.38 2.71,3.43 2.71,5.76 0,4.14 -3.32,7.5 -7.48,7.5 l -1.38,-0.13 c 1.36,1.35 2.22,3.24 2.22,5.34 0,4.15 -3.39,7.48 -7.5,7.48 l -2.01,-0.29 c 0.9,1.24 1.49,2.73 1.49,4.39 0,4.12 -3.4,7.48 -7.56,7.48 l -2.09,-0.33 0.1,0.99 c 0,4.17 -3.34,7.51 -7.47,7.51 -1.38,0 -2.63,-0.38 -3.73,-1.02 l 0.1,0.7 c 0,4.16 -3.38,7.5 -7.52,7.5 -2.52,0 -4.68,-1.23 -6.03,-3.09 l 0.04,0.21 c 0,4.16 -3.4,7.5 -7.52,7.5 -3.07,0 -5.71,-1.83 -6.88,-4.5 -0.43,3.72 -3.55,6.63 -7.42,6.63 -3.5,0 -6.39,-2.41 -7.25,-5.64 -1.17,2.59 -3.77,4.42 -6.83,4.42 -3.54,0 -6.51,-2.49 -7.27,-5.83 -1.21,2.51 -3.77,4.23 -6.74,4.23 -4.1,0 -7.5,-3.36 -7.5,-7.49 l 0.12,-0.97 c -1.27,2.32 -3.71,3.89 -6.5,3.89 -4.14,0 -7.54,-3.36 -7.54,-7.5 l 0.14,-1.36 c -1.29,1.17 -3.05,1.94 -4.99,1.94 -4.14,0 -7.5,-3.35 -7.5,-7.52 l 0.16,-1.51 -0.33,-0.24 c -1.09,0.67 -2.36,1.07 -3.77,1.07 -4.12,0 -7.5,-3.38 -7.5,-7.5 0,-1.06 0.25,-2.07 0.62,-2.99 l -0.09,-0.07 c -0.92,0.41 -1.94,0.63 -3.01,0.63 -4.18,0 -7.5,-3.34 -7.5,-7.5 0,-1.91 0.72,-3.66 1.91,-4.97 l -0.88,0.1 c -4.16,0 -7.48,-3.38 -7.48,-7.52 0,-1.94 0.75,-3.73 2,-5.04 l -1.14,0.12 c -4.16,0 -7.5,-3.36 -7.5,-7.51 0,-2.43 1.17,-4.62 2.97,-5.97 -4.16,0 -7.5,-3.37 -7.5,-7.49 0,-4.15 3.34,-7.49 7.5,-7.49 h 0.04 l -0.12,-0.82 -1.31,0.26 c -4.12,0 -7.5,-3.37 -7.5,-7.5 0,-3.33 2.25,-6.09 5.26,-7.05 l -2.13,-0.26 c -2.01,-0.47 -4.8,-2.01 -6.56,-6.54 -3.38,-8.75 -1.14,-24.56 4.74,-33.14 3.58,-5.28 7.11,-8.36 10.53,-9.14 7.97,-29.97 24.32,-52.29 41.74,-66.57 v -22.48 l -9.73,0.1 1.72,-4.43 -49.74,-19.31 v 0.57 c 0,0 -18.5,1.77 -33.62,-38.559 -13.83,-36.871 -8.92,-148.269 -8.92,-148.269 h 42.28 V 849 h 203.69 v 0.262 h 41.49 c 0,0 4.96,111.398 -8.89,148.269 -15.14,40.329 -33.61,38.559 -33.61,38.559"
         style="fill:#ffffff;fill-opacity:1;fill-rule:nonzero;stroke:none"
         id="path184" />
    </g>
    <path
       style="opacity:0.977436;fill:#008080;stroke:#000000;stroke-width:1.17651;stroke-linecap:round;stroke-linejoin:round"
       d="m 133.00006,184.61857 c -12.29393,-3.13145 -22.96383,-11.80032 -28.32029,-23.00911 -3.05293,-6.38848 -3.95403,-10.53107 -3.98331,-18.31236 -0.031,-8.2247 0.85103,-11.98936 4.59612,-19.61806 2.23492,-4.55252 3.46444,-6.21453 7.81818,-10.56828 4.35375,-4.35374 6.01576,-5.58326 10.56828,-7.81818 7.53696,-3.70005 11.36795,-4.59554 19.61806,-4.5857 7.77974,0.009 11.87942,0.89871 18.31236,3.97289 8.71338,4.16395 15.9069,11.47186 20.1012,20.42087 3.13641,6.69187 4.16098,12.09548 3.81568,20.12409 -0.48515,11.28042 -4.30653,19.95094 -12.3286,27.97301 -4.97088,4.97088 -10.34822,8.3348 -16.82194,10.52336 -6.0891,2.05853 -17.15024,2.4832 -23.37574,0.89747 z m 25.05618,-16.37025 c 2.42959,-0.93232 2.58435,-2.46156 2.58435,-25.53537 v -21.96459 l -1.66218,-1.66217 -1.66217,-1.66218 H 143.03067 128.7451 l -1.39575,1.39575 -1.39575,1.39575 v 22.87693 c 0,22.70565 0.009,22.88678 1.2364,24.19302 1.22907,1.30828 1.32153,1.31608 15.59107,1.31608 7.89507,0 14.76889,-0.15895 15.27517,-0.35322 z"
       id="path605"
       transform="matrix(0.75000002,0,0,-0.75000002,0,425.20001)" />
    <path
       style="opacity:0.977436;fill:#008000;stroke:#000000;stroke-width:1.17651;stroke-linecap:round;stroke-linejoin:round"
       d="m 131.92431,183.42245 c -11.44524,-3.42154 -21.00682,-11.37809 -26.12041,-21.73575 -3.52509,-7.14012 -4.48851,-11.96095 -4.12965,-20.66416 0.31243,-7.57712 0.9941,-10.05773 4.89519,-17.81365 3.27868,-6.5185 10.39827,-13.65813 16.72237,-16.76945 7.50019,-3.68993 10.24965,-4.42711 17.73073,-4.75389 8.72071,-0.38092 13.48495,0.57443 20.75533,4.162 4.54075,2.24063 6.22982,3.49298 10.59353,7.85453 4.56156,4.55929 5.53928,5.91057 8.05809,11.13691 1.57664,3.27142 3.14277,7.30405 3.48029,8.96139 1.02371,5.02684 0.76715,15.25398 -0.50769,20.23861 -3.55097,13.88414 -15.47896,25.81213 -29.3631,29.3631 -5.85189,1.49665 -17.14163,1.50705 -22.11468,0.0204 z m 27.02287,-14.8276 c 1.99245,-1.06633 2.25562,-4.17555 2.25888,-26.68824 l 0.003,-21.86149 -1.52798,-1.59488 -1.52799,-1.59487 H 143.0852 c -14.68811,0 -15.10125,0.0312 -16.38415,1.2364 l -1.31609,1.2364 v 23.52526 23.52525 l 1.39575,1.39575 1.39575,1.39575 h 14.84785 c 8.92625,0 15.27659,-0.22945 15.92287,-0.57533 z"
       id="path684"
       transform="matrix(0.75000002,0,0,-0.75000002,0,425.20001)" />
    <path
       style="opacity:0.977436;fill:#8fdc00;stroke:#000000;stroke-width:0.415961;stroke-linecap:round;stroke-linejoin:round;fill-opacity:1"
       d="m 128.7689,140.42947 v -17.28981 h 14.37467 14.37467 v 17.28981 17.28982 H 143.14357 128.7689 Z"
       id="path686"
       transform="matrix(0.75000002,0,0,-0.75000002,0,425.20001)" />
    <path
       style="opacity:0.977436;fill:#008000;stroke:#000000;stroke-width:0.415961;stroke-linecap:round;stroke-linejoin:round"
       d="m 141.47128,165.95599 c -0.40885,-0.24927 -0.82338,-0.76007 -1.07087,-1.31956 -0.56477,-1.27674 -0.36923,-2.29692 0.6322,-3.29835 0.99369,-0.99369 2.02302,-1.19633 3.27153,-0.64406 1.17989,0.52192 1.75457,1.45719 1.75457,2.85547 0,0.98139 -0.0637,1.12196 -0.87824,1.93646 -0.81971,0.81971 -0.95036,0.87819 -1.96018,0.87749 -0.73111,-5e-4 -1.29825,-0.13263 -1.74901,-0.40745 z"
       id="path688"
       transform="matrix(0.75000002,0,0,-0.75000002,0,425.20001)" />
    <path
       style="opacity:0.977436;fill:#008000;stroke:#000000;stroke-width:0.415961;stroke-linecap:round;stroke-linejoin:round"
       d="m 137.01389,121.23235 c -0.39783,-0.47935 -0.087,-1.26106 0.55051,-1.38427 0.30418,-0.0588 3.08622,-0.0434 6.1823,0.0342 l 5.62925,0.14115 0.0657,0.46342 c 0.14549,1.02628 0.0361,1.04441 -6.29807,1.04441 -4.95997,0 -5.92045,-0.0468 -6.12968,-0.29895 z"
       id="path690"
       transform="matrix(0.75000002,0,0,-0.75000002,0,425.20001)" />
    <path
       style="opacity:0.977436;fill:#008000;stroke:#000000;stroke-width:1.17651;stroke-linecap:round;stroke-linejoin:round"
       d="m 413.40075,184.54395 c -14.36574,-3.80449 -25.42524,-14.12147 -30.19546,-28.16815 -2.06488,-6.08038 -2.53578,-15.68345 -1.09199,-22.26871 2.05197,-9.35914 7.58597,-18.30868 14.93009,-24.14478 8.24329,-6.55064 15.97836,-9.24277 26.59286,-9.25543 8.25011,-0.01 12.08109,0.88565 19.61806,4.5857 4.55251,2.23492 6.21453,3.46444 10.56827,7.81818 4.35374,4.35375 5.58327,6.01576 7.81819,10.56828 1.45859,2.97114 3.08891,7.06534 3.62291,9.09823 1.33651,5.08788 1.31106,16.03085 -0.049,21.03965 -2.27287,8.3709 -7.63965,16.7614 -14.18942,22.18392 -4.35275,3.60363 -12.42524,7.56823 -17.83445,8.75896 -5.58084,1.2285 -14.71231,1.12891 -19.7901,-0.21585 z m 33.99552,-13.45024 c 0.19306,-0.19307 -1.16391,-1.46626 -3.0155,-2.82932 -3.22821,-2.37648 -5.77123,-5.49156 -6.45582,-7.90812 -0.2569,-0.90682 0.25912,-1.48296 2.54649,-2.84319 3.84928,-2.28905 9.90968,-8.65941 11.45673,-12.04267 1.94428,-4.25198 1.76812,-10.22909 -0.43276,-14.68338 -2.03323,-4.11499 -7.40054,-9.64539 -11.4684,-11.81687 -6.65625,-3.5532 -17.28743,-4.79889 -25.14603,-2.94646 -8.36501,1.9718 -15.54941,7.5879 -18.91941,14.78942 -1.62098,3.46396 -1.7292,4.08702 -1.50697,8.6766 0.20666,4.26807 0.50174,5.43582 2.15651,8.53424 4.598,8.60936 14.52642,13.72801 26.71814,13.77467 l 5.42476,0.0208 1.61057,2.54158 c 1.78141,2.81117 5.37102,5.20973 9.43772,6.30622 2.8081,0.75715 7.02641,0.99407 7.59397,0.42652 z"
       id="path692"
       transform="matrix(0.75000002,0,0,-0.75000002,0,425.20001)" />
    <path
       style="opacity:0.977436;fill:#008000;stroke:#000000;stroke-width:1.17651;stroke-linecap:round;stroke-linejoin:round"
       d="m 426.91249,151.52928 c -5.85001,-3.35499 -12.00098,-10.57102 -15.22517,-17.86149 l -1.30462,-2.94999 1.79334,-3.34227 c 0.98634,-1.83826 2.08915,-3.43528 2.45068,-3.54895 0.98307,-0.30908 4.49974,3.00592 5.33951,5.03331 0.64277,1.55177 0.61481,1.84147 -0.22296,2.31031 -1.32877,0.74362 -3.21533,2.83503 -3.21343,3.56237 0.003,1.09562 9.73304,11.1234 10.7933,11.1234 0.63908,0 1.26288,-0.65286 1.62998,-1.70592 0.32708,-0.93825 0.77532,-1.70591 0.9961,-1.70591 0.82706,0 7.6187,4.05707 7.6187,4.55112 0,0.50227 -6.80299,6.25829 -7.38409,6.24769 -0.1609,-0.003 -1.633,-0.77409 -3.27134,-1.71367 z"
       id="path694"
       transform="matrix(0.75000002,0,0,-0.75000002,0,425.20001)" />
    <path
       style="opacity:0.977436;fill:#008000;stroke:#000000;stroke-width:1.17651;stroke-linecap:round;stroke-linejoin:round"
       d="m 275.9363,524.02077 c -15.23999,-2.78514 -28.23493,-14.23886 -33.24782,-29.30461 -1.3395,-4.02572 -1.51778,-5.46505 -1.54954,-12.51006 -0.0307,-6.82016 0.15494,-8.57209 1.29578,-12.22575 4.44999,-14.25142 14.83911,-24.64054 29.09053,-29.09052 3.58722,-1.12011 5.48442,-1.33168 11.94142,-1.33168 6.45701,0 8.3542,0.21157 11.94143,1.33168 14.25142,4.44998 24.64054,14.8391 29.09053,29.09052 1.14341,3.66188 1.32538,5.39024 1.28715,12.22575 -0.0392,7.01396 -0.22363,8.50208 -1.5503,12.51006 -4.4814,13.53877 -15.07646,23.98535 -28.54306,28.14308 -4.46613,1.37889 -15.13456,2.00612 -19.75612,1.16153 z m -8.0361,-16.24767 c 3.69272,-1.6148 7.60552,-5.09721 7.60552,-6.76895 0,-0.69097 -0.63328,-1.85125 -1.40728,-2.57839 -0.77401,-0.72714 -1.83688,-2.44693 -2.36192,-3.82175 -0.93308,-2.44323 -0.92572,-2.53878 0.32595,-4.23176 l 1.28059,-1.7321 -1.4066,-1.51111 c -0.77363,-0.83111 -1.5025,-1.77194 -1.6197,-2.09074 -0.11721,-0.31879 -1.53851,-1.80832 -3.15845,-3.31006 l -2.94534,-2.73043 -2.61452,3.31006 c -3.65125,4.62262 -5.07765,9.44204 -4.73627,16.00259 0.18699,3.59339 0.61535,5.68335 1.57546,7.68655 1.96099,4.09146 3.50501,4.38127 9.46256,1.77609 z m 30.92208,-10.21609 6.52314,-6.5417 -4.3881,-4.3881 c -3.45483,-3.45483 -4.53576,-4.24043 -5.08239,-3.6938 -1.06552,1.06552 -1.60411,0.8326 -1.60411,-0.69375 0,-1.51336 -0.84529,-2.38765 -1.41587,-1.46444 -0.19644,0.31786 -0.63761,0.57792 -0.98038,0.57792 -0.36189,0 -0.26285,-0.41727 0.23617,-0.99512 1.23609,-1.43132 2.7752,-8.09102 2.14294,-9.27242 -0.29639,-0.5538 -2.06737,-1.34776 -4.20273,-1.88414 -5.27304,-1.32455 -5.93639,-1.23566 -6.87379,0.92105 -0.59225,1.36262 -0.8091,1.54523 -0.82551,0.69517 -0.0122,-0.6341 0.39265,-1.74527 0.89975,-2.46925 0.8945,-1.27708 0.83938,-1.40029 -1.84808,-4.13119 -2.27183,-2.30855 -3.07692,-2.78494 -4.476,-2.64851 -1.55078,0.15123 -1.70111,0.34735 -1.65308,2.15659 0.0508,1.91507 -0.0243,1.99024 -1.99024,1.99024 -1.95584,0 -2.04307,0.085 -2.04307,1.99024 0,1.7691 -0.18955,2.02183 -1.70592,2.27455 -1.42253,0.23709 -1.73475,0.58112 -1.87952,2.07094 -0.14144,1.4556 -0.37905,1.7329 -1.28247,1.49665 -1.41613,-0.37033 -2.80872,0.77633 -2.80872,2.31271 0,1.71933 5.56548,7.18699 7.37289,7.2433 0.79256,0.0247 1.12116,0.17396 0.73022,0.33171 -1.23665,0.49899 -0.76897,1.52971 2.08675,4.59899 2.13608,2.29582 3.16415,2.98536 4.45103,2.98536 0.95122,0 2.11756,0.4908 2.70261,1.13728 0.56607,0.6255 1.63145,1.13727 2.36751,1.13727 1.19378,0 1.26196,0.12221 0.63146,1.13181 -0.63618,1.01867 -0.28284,1.55864 3.53494,5.40207 2.33297,2.34865 4.38029,4.27027 4.5496,4.27027 0.1693,0 3.24324,-2.94377 6.83097,-6.5417 z m 5.76637,-26.98308 c 2.97885,-3.09051 5.60407,-7.73128 5.60407,-9.90667 0,-2.43285 -3.91853,-5.09427 -8.97962,-6.09887 -4.89062,-0.97077 -13.69986,2.02642 -19.02722,6.47367 l -1.5651,1.30654 2.55601,2.50854 c 3.01884,2.96277 7.04912,4.3753 8.45953,2.9649 0.72954,-0.72954 1.02913,-0.68913 2.44379,0.32964 0.88677,0.63862 2.49414,2.07898 3.57194,3.20081 1.07779,1.12184 2.46824,2.0397 3.08989,2.0397 0.62164,0 2.35267,-1.26822 3.84671,-2.81826 z"
       id="path696"
       transform="matrix(0.75000002,0,0,-0.75000002,0,425.20001)" />
    <path
       style="opacity:0.977436;fill:#008000;stroke:#000000;stroke-width:0.0735322;stroke-linecap:round;stroke-linejoin:round"
       d="m 284.90604,493.5988 c 0,-0.18858 -0.0733,-0.38283 -0.20036,-0.53133 l -0.11787,-0.1377 0.13896,-0.092 c 0.14576,-0.0965 8.83935,-8.63312 9.1001,-8.93583 l 0.15039,-0.17459 0.13997,0.15184 c 0.077,0.0835 0.21094,0.18104 0.29769,0.21671 0.0867,0.0357 0.15778,0.0754 0.15786,0.0883 7e-5,0.0129 -1.86705,1.85937 -4.14916,4.10325 -2.28211,2.24387 -4.45715,4.38347 -4.83343,4.75466 -0.66366,0.65469 -0.68415,0.67136 -0.68415,0.55662 z"
       id="path698"
       transform="matrix(0.75000002,0,0,-0.75000002,0,425.20001)" />
    <path
       style="opacity:0.977436;fill:#008000;stroke:#000000;stroke-width:0.0735322;stroke-linecap:round;stroke-linejoin:round"
       d="m 272.40631,483.31126 c 0.0425,-0.26198 -0.22108,-0.60541 -0.52278,-0.68114 -0.0505,-0.0127 -0.0917,-0.0272 -0.0917,-0.0324 0,-0.005 0.13269,-0.14335 0.29487,-0.30713 0.43208,-0.43633 0.63802,-0.87376 0.68692,-1.45909 0.0412,-0.49341 -0.15278,-1.14476 -0.4571,-1.53473 -0.11096,-0.14217 -4.34863,-4.47143 -4.81088,-4.91485 l -0.22788,-0.2186 0.19326,-0.10907 c 0.16558,-0.0934 0.41464,-0.35191 0.45459,-0.47175 0.007,-0.02 0.30859,0.26489 0.67098,0.63302 0.36239,0.36812 2.12118,2.15662 3.90842,3.97444 1.78724,1.81782 3.32034,3.36443 3.40688,3.4369 0.38355,0.32119 0.8518,0.47579 1.341,0.44276 0.95236,-0.0643 1.85981,-0.77825 2.19282,-1.72522 0.0932,-0.26505 0.10783,-0.3565 0.10864,-0.67945 10e-4,-0.43117 -0.0873,-0.73636 -0.3097,-1.06982 -0.15991,-0.23973 -7.88702,-8.1048 -8.12687,-8.27197 l -0.17538,-0.12224 0.15896,-0.1053 c 0.18209,-0.12061 0.36316,-0.33131 0.4743,-0.5519 l 0.0767,-0.15228 1.30633,1.3251 c 0.71849,0.7288 2.52109,2.56082 4.00578,4.07116 1.4847,1.51034 2.79086,2.81041 2.90259,2.88904 0.26846,0.18894 0.52895,0.301 0.85736,0.36884 0.33592,0.0694 0.54493,0.0701 0.89996,0.003 0.84389,-0.15955 1.57352,-0.856 1.76921,-1.68879 0.15288,-0.6506 -0.001,-1.40089 -0.39317,-1.91421 -0.0653,-0.0855 -1.91341,-1.97957 -4.107,-4.20912 l -3.98834,-4.05371 0.10486,-0.0382 c 0.28348,-0.10327 0.56983,-0.36214 0.68508,-0.61933 l 0.0595,-0.13279 3.37629,3.43755 c 1.85696,1.89064 3.38856,3.4387 3.40355,3.44013 0.015,0.001 -0.0133,-0.0774 -0.0628,-0.17512 l -0.0901,-0.1777 0.15164,-6.7e-4 c 0.22779,-0.001 0.46041,-0.16287 0.64084,-0.44588 l 0.14675,-0.23019 0.069,0.18486 c 0.2196,0.58867 0.71591,1.10199 1.27075,1.3143 0.10576,0.0405 1.19092,0.32818 2.41148,0.63938 1.22056,0.31119 2.22499,0.5716 2.23207,0.57867 0.007,0.007 -0.23695,0.99424 -0.54227,2.19368 -0.39712,1.56003 -0.56054,2.26175 -0.57409,2.46513 -0.0571,0.85665 0.46306,1.74816 1.24975,2.14204 0.44751,0.22406 0.97643,0.30501 1.40383,0.21487 l 0.23101,-0.0487 0.002,0.23197 c 0.002,0.26859 0.0958,0.48574 0.26381,0.60994 0.0577,0.0427 0.098,0.0887 0.0896,0.10239 -0.0426,0.0689 -0.49966,0.12364 -1.01253,0.12118 -0.49182,-0.002 -0.58435,-0.0129 -0.86321,-0.098 -1.16133,-0.35449 -2.00159,-1.19453 -2.35999,-2.3594 -0.0882,-0.28677 -0.0961,-0.36116 -0.0964,-0.91629 l -4.3e-4,-0.60418 0.43071,-1.67788 c 0.40099,-1.56211 0.42609,-1.67935 0.36376,-1.69913 -0.29869,-0.0948 -2.43438,-0.61311 -2.4603,-0.59708 -0.0972,0.0601 -0.58387,0.15726 -0.88707,0.17712 -0.19058,0.0125 -0.34651,0.0247 -0.34651,0.027 0,0.002 0.047,0.12648 0.10452,0.27578 0.28851,0.74926 0.30298,1.62963 0.0393,2.38955 -0.32807,0.94532 -1.13178,1.74068 -2.08915,2.06744 -0.44981,0.15353 -0.79215,0.20414 -1.25323,0.18527 l -0.37317,-0.0153 -0.004,0.51755 c -0.003,0.45167 -0.0156,0.55731 -0.098,0.82989 -0.18796,0.622 -0.52272,1.16174 -1.01187,1.63149 -0.46913,0.45052 -0.92798,0.72319 -1.52405,0.90565 -0.27947,0.0855 -0.37029,0.0959 -0.8632,0.098 -0.47463,0.002 -0.59016,-0.009 -0.83472,-0.0798 -0.66448,-0.19234 -0.92361,-0.37031 -1.7841,-1.22533 -0.66947,-0.66521 -0.6823,-0.67565 -0.70431,-0.57352 -0.18812,0.87294 -0.60263,1.55463 -1.26369,2.0782 l -0.15178,0.12021 0.0221,-0.13627 z"
       id="path700"
       transform="matrix(0.75000002,0,0,-0.75000002,0,425.20001)" />
  </g>
</svg>
